<?xml version="1.0" encoding="UTF-8" standalone="no"?>
<!-- Created with Inkscape (http://www.inkscape.org/) -->

<svg
   width="70"
   height="70"
   viewBox="0 0 18.520833 18.520833"
   version="1.1"
   id="svg5"
   xml:space="preserve"
   inkscape:version="1.2.2 (b0a8486541, 2022-12-01)"
   sodipodi:docname="Goal.svg"
   xmlns:inkscape="http://www.inkscape.org/namespaces/inkscape"
   xmlns:sodipodi="http://sodipodi.sourceforge.net/DTD/sodipodi-0.dtd"
   xmlns="http://www.w3.org/2000/svg"
   xmlns:svg="http://www.w3.org/2000/svg"><sodipodi:namedview
     id="namedview7"
     pagecolor="#505050"
     bordercolor="#eeeeee"
     borderopacity="1"
     inkscape:showpageshadow="0"
     inkscape:pageopacity="0"
     inkscape:pagecheckerboard="0"
     inkscape:deskcolor="#505050"
     inkscape:document-units="mm"
     showgrid="false"
     inkscape:zoom="5.6568543"
     inkscape:cx="44.194174"
     inkscape:cy="56.480154"
     inkscape:window-width="1850"
     inkscape:window-height="1016"
     inkscape:window-x="0"
     inkscape:window-y="0"
     inkscape:window-maximized="1"
     inkscape:current-layer="layer1" /><defs
     id="defs2" /><g
     inkscape:label="Layer 1"
     inkscape:groupmode="layer"
     id="layer1"><path
       id="rect4087"
       style="fill:#ffffff;fill-opacity:1;stroke:none;stroke-width:0.777777;stroke-linejoin:round;stroke-opacity:1"
       d="M 1.3239694,9.2604169 V 17.196864 H 9.2604169 L 9.2431191,9.2777154 Z m 3.98832,0.8231691 c 0.092358,1.7e-5 0.1809395,0.03667 0.2463114,0.101909 l 2.7763616,2.776362 c 0.1362954,0.136219 0.1362954,0.357155 0,0.493374 l -2.7936599,2.793285 c -0.1361763,0.136045 -0.3568224,0.136045 -0.4929987,0 L 2.2723179,13.472529 C 2.136273,13.336353 2.136273,13.115707 2.272318,12.979531 l 2.7932839,-2.794036 c 0.065464,-0.06533 0.1541987,-0.101992 0.2466875,-0.101909 z"
       sodipodi:nodetypes="ccccccccccccccc" /><path
       id="rect4087-0"
       style="fill:#ffffff;fill-opacity:1;stroke:none;stroke-width:0.777778;stroke-linejoin:round;stroke-opacity:1"
       d="M 17.196864,9.2604169 V 1.3239694 H 9.2604169 L 9.2431222,9.2777146 Z M 13.17402,8.4718793 C 13.08166,8.4718622 12.993081,8.4352073 12.927708,8.3699702 L 10.151347,5.5936089 c -0.136296,-0.1362194 -0.136296,-0.3571556 0,-0.4933751 l 2.79366,-2.7932837 c 0.136176,-0.1360449 0.356823,-0.1360449 0.492998,0 l 2.775987,2.7759856 c 0.136045,0.1361764 0.136045,0.3568225 0,0.4929988 l -2.793285,2.7940357 c -0.06546,0.065333 -0.154199,0.1019923 -0.246687,0.1019091 z"
       sodipodi:nodetypes="ccccccccccccccc" /><path
       style="fill:#ffffff;fill-opacity:1;stroke:#ffffff;stroke-width:0.65;stroke-linecap:butt;stroke-linejoin:round;stroke-dasharray:none;stroke-opacity:1"
       d="m 10.449161,12.468936 2.742544,2.782967 2.79331,-2.737163 -1.281166,-1.328452 -1.512144,1.454112 -1.413647,-1.458129 z"
       id="path1409-6-2"
       sodipodi:nodetypes="ccccccc" /><path
       style="fill:#ffffff;fill-opacity:1;stroke:#ffffff;stroke-width:0.65;stroke-linecap:butt;stroke-linejoin:round;stroke-dasharray:none;stroke-opacity:1"
       d="M 2.535812,4.55559 5.2783572,7.3385567 8.0716659,4.6013937 6.7905003,3.2729416 5.2783572,4.7270552 3.8647098,3.2689243 Z"
       id="path1409-6-2-9"
       sodipodi:nodetypes="ccccccc" /><path
       style="color:#000000;fill:#ffffff;stroke-width:0.777778;stroke-linejoin:round;-inkscape-stroke:none"
       d="M 0.3888884,-5.0441787e-7 C 0.17411988,2.0940407e-5 2.0940407e-5,0.17411988 -5.0441787e-7,0.3888884 V 18.131944 C 2.0655426e-5,18.346713 0.17411967,18.520813 0.3888884,18.520834 H 18.131944 c 0.214769,-2.1e-5 0.388869,-0.174121 0.38889,-0.38889 V 0.3888884 C 18.520813,0.17411967 18.346713,2.0655426e-5 18.131944,-5.0441787e-7 Z M 0.7777773,0.7777773 H 17.743056 V 17.743056 H 0.7777773 Z"
       id="path8926"
       sodipodi:nodetypes="cccccccccccccc" /></g></svg>
