<?xml version="1.0" encoding="UTF-8" standalone="no"?>
<!-- Created with Inkscape (http://www.inkscape.org/) -->

<svg
   width="50"
   height="50"
   viewBox="0 0 13.229166 13.229166"
   version="1.1"
   id="svg5"
   xml:space="preserve"
   inkscape:version="1.2.2 (b0a8486541, 2022-12-01)"
   sodipodi:docname="heartbreak.svg"
   xmlns:inkscape="http://www.inkscape.org/namespaces/inkscape"
   xmlns:sodipodi="http://sodipodi.sourceforge.net/DTD/sodipodi-0.dtd"
   xmlns="http://www.w3.org/2000/svg"
   xmlns:svg="http://www.w3.org/2000/svg"><sodipodi:namedview
     id="namedview7"
     pagecolor="#505050"
     bordercolor="#eeeeee"
     borderopacity="1"
     inkscape:showpageshadow="0"
     inkscape:pageopacity="0"
     inkscape:pagecheckerboard="0"
     inkscape:deskcolor="#505050"
     inkscape:document-units="mm"
     showgrid="false"
     inkscape:zoom="5.6568543"
     inkscape:cx="20.240932"
     inkscape:cy="29.786873"
     inkscape:window-width="1846"
     inkscape:window-height="1016"
     inkscape:window-x="0"
     inkscape:window-y="0"
     inkscape:window-maximized="1"
     inkscape:current-layer="layer1" /><defs
     id="defs2" /><g
     inkscape:label="Layer 1"
     inkscape:groupmode="layer"
     id="layer1"><path
       id="path1708"
       style="fill:#ffffff;fill-opacity:1;stroke-width:0;stroke-dasharray:none;color:#000000;stroke-linejoin:round"
       d="M 3.4814412 1.5895671 A 0.69256925 0.69256925 0 0 0 3.0664795 1.7812866 L 0.234611 4.5232381 A 0.69256925 0.69256925 0 0 0 0.22272542 5.5056071 L 5.3149211 10.674801 L 5.9805135 9.2030558 L 4.843632 7.2362508 L 6.4766073 5.900415 L 6.0177205 4.5232381 L 6.1009196 3.9165568 L 4.0447144 1.7967896 A 0.69256925 0.69256925 0 0 0 3.4814412 1.5895671 z M 9.7182699 1.5973185 A 0.69256925 0.69256925 0 0 0 9.3027913 1.786971 L 7.6946208 3.3336466 L 7.5509603 4.3806112 L 8.2263713 6.4063273 L 6.7794312 7.5897176 L 7.6641317 9.1208903 L 6.5246663 11.6396 A 0.69256925 0.69256925 0 0 0 7.045048 11.445296 L 12.998173 5.6130941 A 0.69256925 0.69256925 0 0 0 13.011609 4.6369263 L 10.281026 1.8066081 A 0.69256925 0.69256925 0 0 0 9.7182699 1.5973185 z " /></g></svg>
