<?xml version="1.0" encoding="UTF-8" standalone="no"?>
<!-- Created with Inkscape (http://www.inkscape.org/) -->

<svg
   width="96.031998mm"
   height="42.889mm"
   viewBox="0 0 96.031998 42.888999"
   version="1.1"
   id="svg5"
   xml:space="preserve"
   inkscape:version="1.2.2 (b0a8486541, 2022-12-01)"
   sodipodi:docname="Keyboard.svg"
   xmlns:inkscape="http://www.inkscape.org/namespaces/inkscape"
   xmlns:sodipodi="http://sodipodi.sourceforge.net/DTD/sodipodi-0.dtd"
   xmlns="http://www.w3.org/2000/svg"
   xmlns:svg="http://www.w3.org/2000/svg"><sodipodi:namedview
     id="namedview7"
     pagecolor="#505050"
     bordercolor="#eeeeee"
     borderopacity="1"
     inkscape:showpageshadow="0"
     inkscape:pageopacity="0"
     inkscape:pagecheckerboard="0"
     inkscape:deskcolor="#505050"
     inkscape:document-units="mm"
     showgrid="false"
     inkscape:zoom="2.8284271"
     inkscape:cx="173.24116"
     inkscape:cy="57.098873"
     inkscape:window-width="1846"
     inkscape:window-height="1016"
     inkscape:window-x="0"
     inkscape:window-y="0"
     inkscape:window-maximized="1"
     inkscape:current-layer="layer1"
     showguides="false" /><defs
     id="defs2" /><g
     inkscape:label="Layer 1"
     inkscape:groupmode="layer"
     id="layer1"><path
       id="rect1634"
       style="fill:#8c8c8c;stroke:#8b8b8b;stroke-width:1.00001;stroke-linejoin:round"
       d="m 26.744888,10.877672 h 3.373349 v 3.257315 h -3.373349 z" /><path
       id="rect1634-3"
       style="fill:#ff1bfe;stroke:#ff1bfe;stroke-width:1.00001;stroke-linejoin:round"
       d="m 21.509674,10.877672 h 3.373349 v 3.257315 h -3.373349 z" /><path
       id="rect1634-6"
       style="fill:#8c8c8c;stroke:#8b8b8b;stroke-width:1.00001;stroke-linejoin:round"
       d="m 37.215317,10.877672 h 3.373348 v 3.257315 h -3.373348 z" /><path
       id="rect1634-3-7"
       style="fill:#8c8c8c;stroke:#8b8b8b;stroke-width:1.00001;stroke-linejoin:round"
       d="m 31.980101,10.877672 h 3.373348 v 3.257315 h -3.373348 z" /><path
       id="rect1634-5"
       style="fill:#8c8c8c;stroke:#8b8b8b;stroke-width:1.00001;stroke-linejoin:round"
       d="m 47.685741,10.877672 h 3.373349 v 3.257315 h -3.373349 z" /><path
       id="rect1634-3-3"
       style="fill:#8c8c8c;stroke:#8b8b8b;stroke-width:1.00001;stroke-linejoin:round"
       d="m 42.450527,10.877672 h 3.373349 v 3.257315 h -3.373349 z" /><path
       id="rect1634-6-5"
       style="fill:#8c8c8c;stroke:#8b8b8b;stroke-width:1.00001;stroke-linejoin:round"
       d="m 58.15617,10.877672 h 3.373348 v 3.257315 H 58.15617 Z" /><path
       id="rect1634-3-7-6"
       style="fill:#8c8c8c;stroke:#8b8b8b;stroke-width:1.00001;stroke-linejoin:round"
       d="m 52.920956,10.877672 h 3.373348 v 3.257315 h -3.373348 z" /><path
       id="rect1634-2"
       style="fill:#8c8c8c;stroke:#8b8b8b;stroke-width:1.00001;stroke-linejoin:round"
       d="m 68.626595,10.877672 h 3.373348 v 3.257315 h -3.373348 z" /><path
       id="rect1634-3-9"
       style="fill:#8c8c8c;stroke:#8b8b8b;stroke-width:1.00001;stroke-linejoin:round"
       d="m 63.391384,10.877672 h 3.373349 v 3.257315 h -3.373349 z" /><path
       id="rect1634-6-1"
       style="fill:#8c8c8c;stroke:#8b8b8b;stroke-width:1.00001;stroke-linejoin:round"
       d="m 79.097023,10.877672 h 3.373348 v 3.257315 h -3.373348 z" /><path
       id="rect1634-3-7-2"
       style="fill:#8c8c8c;stroke:#8b8b8b;stroke-width:1.00001;stroke-linejoin:round"
       d="m 73.861809,10.877672 h 3.373348 v 3.257315 h -3.373348 z" /><path
       id="rect1634-5-7"
       style="fill:#8c8c8c;stroke:#8b8b8b;stroke-width:1.00001;stroke-linejoin:round"
       d="m 89.567444,10.877672 h 5.965593 v 3.257315 h -5.965593 z" /><path
       id="rect1634-3-3-0"
       style="fill:#8c8c8c;stroke:#8b8b8b;stroke-width:1.00001;stroke-linejoin:round"
       d="m 84.33223,10.877672 h 3.373348 v 3.257315 H 84.33223 Z" /><path
       id="rect1634-2-6"
       style="fill:#feff1a;stroke:#feff1a;stroke-width:1.00001;stroke-linejoin:round"
       d="m 34.572357,15.946302 h 3.373349 v 3.257315 h -3.373349 z" /><path
       id="rect1634-3-9-0"
       style="fill:#8c8c8c;stroke:#8b8b8b;stroke-width:1.00001;stroke-linejoin:round"
       d="m 29.337147,15.946302 h 3.373348 v 3.257315 h -3.373348 z" /><path
       id="rect1634-3-9-0-6"
       style="fill:#8c8c8c;stroke:#8b8b8b;stroke-width:1.00001;stroke-linejoin:round"
       d="m 21.509674,15.946302 h 5.869893 v 3.257315 h -5.869893 z" /><path
       id="rect1634-3-9-0-6-6"
       style="fill:#8c8c8c;stroke:#8b8b8b;stroke-width:1.00001;stroke-linejoin:round"
       d="m 21.509674,21.014929 h 7.432564 v 3.257314 h -7.432564 z" /><path
       id="rect1634-3-9-0-6-6-4"
       style="fill:#8c8c8c;stroke:#8b8b8b;stroke-width:1.00001;stroke-linejoin:round"
       d="m 21.509674,26.083559 h 10.038673 v 3.257314 H 21.509674 Z" /><path
       id="rect1634-6-1-6"
       style="fill:#8c8c8c;stroke:#8b8b8b;stroke-width:1.00001;stroke-linejoin:round"
       d="m 45.042789,15.946302 h 3.373349 v 3.257315 h -3.373349 z" /><path
       id="rect1634-3-7-2-2"
       style="fill:#ff0202;stroke:#ff0202;stroke-width:1.00001;stroke-linejoin:round"
       d="m 39.807575,15.946302 h 3.373349 v 3.257315 h -3.373349 z" /><path
       id="rect1634-5-7-6"
       style="fill:#8c8c8c;stroke:#8b8b8b;stroke-width:1.00001;stroke-linejoin:round"
       d="m 55.513214,15.946302 h 3.373349 v 3.257315 h -3.373349 z" /><path
       id="rect1634-3-3-0-1"
       style="fill:#8c8c8c;stroke:#8b8b8b;stroke-width:1.00001;stroke-linejoin:round"
       d="m 50.277996,15.946302 h 3.373349 v 3.257315 h -3.373349 z" /><path
       id="rect1634-6-5-9-8"
       style="fill:#8c8c8c;stroke:#8b8b8b;stroke-width:1.00001;stroke-linejoin:round"
       d="m 65.983635,15.946302 h 3.373348 v 3.257315 h -3.373348 z" /><path
       id="rect1634-3-7-6-3-7"
       style="fill:#8c8c8c;stroke:#8b8b8b;stroke-width:1.00001;stroke-linejoin:round"
       d="m 60.748428,15.946302 h 3.373349 v 3.257315 h -3.373349 z" /><path
       id="rect1634-2-6-9"
       style="fill:#8c8c8c;stroke:#8b8b8b;stroke-width:1.00001;stroke-linejoin:round"
       d="m 76.454056,15.946302 h 3.373348 v 3.257315 h -3.373348 z" /><path
       id="rect1634-3-9-0-2"
       style="fill:#8c8c8c;stroke:#8b8b8b;stroke-width:1.00001;stroke-linejoin:round"
       d="m 71.218849,15.946302 h 3.373349 v 3.257315 h -3.373349 z" /><path
       id="rect1634-6-1-6-0"
       style="fill:#8c8c8c;stroke:#8b8b8b;stroke-width:1.00001;stroke-linejoin:round"
       d="m 86.924492,15.946302 h 3.373348 v 3.257315 h -3.373348 z" /><path
       id="rect1634-3-7-2-2-2"
       style="fill:#8c8c8c;stroke:#8b8b8b;stroke-width:1.00001;stroke-linejoin:round"
       d="m 81.68927,15.946302 h 3.373348 v 3.257315 H 81.68927 Z" /><path
       id="rect1634-3-3-0-1-7"
       style="fill:#8c8c8c;stroke:#8b8b8b;stroke-width:1.00001;stroke-linejoin:round"
       d="m 92.159691,15.946302 h 3.373348 v 3.257315 h -3.373348 z" /><path
       id="rect1634-2-6-9-2"
       style="fill:#feff1a;stroke:#feff1a;stroke-width:1.00001;stroke-linejoin:round"
       d="m 35.909496,21.014929 h 3.373349 v 3.257314 h -3.373349 z" /><path
       id="rect1634-3-9-0-2-2"
       style="fill:#feff1a;stroke:#feff1a;stroke-width:1.00001;stroke-linejoin:round"
       d="m 30.674284,21.014929 h 3.373348 v 3.257314 h -3.373348 z" /><path
       id="rect1634-6-1-6-0-8"
       style="fill:#8c8c8c;stroke:#8b8b8b;stroke-width:1.00001;stroke-linejoin:round"
       d="m 46.379929,21.014929 h 3.373348 v 3.257314 h -3.373348 z" /><path
       id="rect1634-3-7-2-2-2-9"
       style="fill:#feff1a;stroke:#feff1a;stroke-width:1.00001;stroke-linejoin:round"
       d="m 41.144711,21.014929 h 3.373348 v 3.257314 h -3.373348 z" /><path
       id="rect1634-5-7-6-3-7"
       style="fill:#8c8c8c;stroke:#8b8b8b;stroke-width:1.00001;stroke-linejoin:round"
       d="m 56.850353,21.014929 h 3.373349 v 3.257314 h -3.373349 z" /><path
       id="rect1634-3-3-0-1-7-3"
       style="fill:#8c8c8c;stroke:#8b8b8b;stroke-width:1.00001;stroke-linejoin:round"
       d="m 51.615128,21.014929 h 3.373348 v 3.257314 h -3.373348 z" /><path
       id="rect1634-6-5-9-8-5-6"
       style="fill:#8c8c8c;stroke:#8b8b8b;stroke-width:1.00001;stroke-linejoin:round"
       d="m 67.320778,21.014929 h 3.373348 v 3.257314 h -3.373348 z" /><path
       id="rect1634-3-7-6-3-7-9-1"
       style="fill:#8c8c8c;stroke:#8b8b8b;stroke-width:1.00001;stroke-linejoin:round"
       d="m 62.085567,21.014929 h 3.373349 v 3.257314 h -3.373349 z" /><path
       id="rect1634-2-6-9-2-2"
       style="fill:#8c8c8c;stroke:#8b8b8b;stroke-width:1.00001;stroke-linejoin:round"
       d="m 77.791199,21.014929 h 3.373348 v 3.257314 h -3.373348 z" /><path
       id="rect1634-3-9-0-2-2-9"
       style="fill:#8c8c8c;stroke:#8b8b8b;stroke-width:1.00001;stroke-linejoin:round"
       d="m 72.555984,21.014929 h 3.373349 v 3.257314 h -3.373349 z" /><path
       id="rect1634-6-1-6-0-8-3"
       style="fill:#8c8c8c;stroke:#8b8b8b;stroke-width:1.00001;stroke-linejoin:round"
       d="m 88.261627,21.014929 h 7.271416 v 3.257314 h -7.271416 z" /><path
       id="rect1634-3-7-2-2-2-9-1"
       style="fill:#8c8c8c;stroke:#8b8b8b;stroke-width:1.00001;stroke-linejoin:round"
       d="m 83.026413,21.014929 h 3.373348 v 3.257314 h -3.373348 z" /><path
       id="rect1634-2-6-9-2-2-4"
       style="fill:#8c8c8c;stroke:#8b8b8b;stroke-width:1.00001;stroke-linejoin:round"
       d="m 38.489471,26.083559 h 3.373349 v 3.257314 h -3.373349 z" /><path
       id="rect1634-3-9-0-2-2-9-5"
       style="fill:#8c8c8c;stroke:#8b8b8b;stroke-width:1.00001;stroke-linejoin:round"
       d="m 33.254257,26.083559 h 3.373349 v 3.257314 h -3.373349 z" /><path
       id="rect1634-6-1-6-0-8-3-0"
       style="fill:#8c8c8c;stroke:#8b8b8b;stroke-width:1.00001;stroke-linejoin:round"
       d="m 48.959896,26.083559 h 3.373349 v 3.257314 h -3.373349 z" /><path
       id="rect1634-3-7-2-2-2-9-1-3"
       style="fill:#8c8c8c;stroke:#8b8b8b;stroke-width:1.00001;stroke-linejoin:round"
       d="m 43.724686,26.083559 h 3.373348 v 3.257314 h -3.373348 z" /><path
       id="rect1634-5-7-6-3-7-9-6"
       style="fill:#8c8c8c;stroke:#8b8b8b;stroke-width:1.00001;stroke-linejoin:round"
       d="m 59.430332,26.083559 h 3.373349 v 3.257314 h -3.373349 z" /><path
       id="rect1634-3-3-0-1-7-3-4-1"
       style="fill:#8c8c8c;stroke:#8b8b8b;stroke-width:1.00001;stroke-linejoin:round"
       d="m 54.195107,26.083559 h 3.373348 v 3.257314 h -3.373348 z" /><path
       id="rect1634-6-5-9-8-5-6-7-0"
       style="fill:#8c8c8c;stroke:#8b8b8b;stroke-width:1.00001;stroke-linejoin:round"
       d="m 69.900749,26.083559 h 3.373349 v 3.257314 h -3.373349 z" /><path
       id="rect1634-3-7-6-3-7-9-1-8-6"
       style="fill:#8c8c8c;stroke:#8b8b8b;stroke-width:1.00001;stroke-linejoin:round"
       d="m 64.665543,26.083559 h 3.373348 v 3.257314 h -3.373348 z" /><path
       id="rect1634-2-6-9-2-2-4-3"
       style="fill:#8c8c8c;stroke:#8b8b8b;stroke-width:1.00001;stroke-linejoin:round"
       d="m 80.37117,26.083559 h 3.373349 v 3.257314 H 80.37117 Z" /><path
       id="rect1634-3-9-0-2-2-9-5-2"
       style="fill:#8c8c8c;stroke:#8b8b8b;stroke-width:1.00001;stroke-linejoin:round"
       d="m 75.135956,26.083559 h 3.373348 v 3.257314 h -3.373348 z" /><path
       id="rect1634-3-7-2-2-2-9-1-3-6"
       style="fill:#8c8c8c;stroke:#8b8b8b;stroke-width:1.00001;stroke-linejoin:round"
       d="m 85.838417,26.083559 h 9.694623 v 3.257314 h -9.694623 z" /><path
       id="rect1634-2-6-9-2-2-4-3-7"
       style="fill:#8c8c8c;stroke:#8b8b8b;stroke-width:1.00001;stroke-linejoin:round"
       d="m 26.744886,31.152189 h 3.373349 v 3.257315 h -3.373349 z" /><path
       id="rect1634-3-9-0-2-2-9-5-2-6"
       style="fill:#8c8c8c;stroke:#8b8b8b;stroke-width:1.00001;stroke-linejoin:round"
       d="m 21.509674,31.152189 h 3.373349 v 3.257315 h -3.373349 z" /><path
       id="rect1634-6-1-6-0-8-3-0-0-5"
       style="fill:#8c8c8c;stroke:#8b8b8b;stroke-width:1.00001;stroke-linejoin:round"
       d="m 37.215313,31.152189 h 4.503581 v 3.257315 h -4.503581 z" /><path
       id="rect1634-6-1-6-0-8-3-0-0-5-9"
       style="fill:#feff1a;stroke:#feff1a;stroke-width:1.00001;stroke-linejoin:round"
       d="m 43.580757,31.152189 h 24.458136 v 3.257315 H 43.580757 Z" /><path
       id="rect1634-3-7-2-2-2-9-1-3-6-6"
       style="fill:#8c8c8c;stroke:#8b8b8b;stroke-width:1.00001;stroke-linejoin:round"
       d="m 31.980103,31.152189 h 3.373348 v 3.257315 h -3.373348 z" /><path
       id="rect1634-2-6-9-2-2-4-3-7-5"
       style="fill:#8c8c8c;stroke:#8b8b8b;stroke-width:1.00001;stroke-linejoin:round"
       d="m 76.454056,31.152189 h 3.373348 v 3.257315 h -3.373348 z" /><path
       id="rect1634-3-9-0-2-2-9-5-2-6-2"
       style="fill:#8c8c8c;stroke:#8b8b8b;stroke-width:1.00001;stroke-linejoin:round"
       d="m 69.900749,31.152189 h 4.406198 v 3.257315 h -4.406198 z" /><path
       id="rect1634-6-1-6-0-8-3-0-0-5-5"
       style="fill:#feff1a;stroke:#feff1a;stroke-width:1.00001;stroke-linejoin:round"
       d="m 86.924484,33.397141 h 3.373349 v 1.012362 h -3.373349 z" /><path
       id="rect1634-6-1-6-0-8-3-0-0-5-5-2"
       style="fill:#feff1a;stroke:#feff1a;stroke-width:1.00001;stroke-linejoin:round"
       d="m 86.924484,31.152189 h 3.373349 v 0.933342 h -3.373349 z" /><path
       id="rect1634-3-7-2-2-2-9-1-3-6-6-4"
       style="fill:#feff1a;stroke:#feff1a;stroke-width:1.00001;stroke-linejoin:round"
       d="m 81.68927,31.152189 h 3.373348 v 3.257315 H 81.68927 Z" /><path
       id="rect1634-3-3-0-1-7-3-4-1-5-3-4"
       style="fill:#feff1a;stroke:#feff1a;stroke-width:1.00001;stroke-linejoin:round"
       d="m 92.159691,31.152189 h 3.373348 v 3.257315 h -3.373348 z" /><path
       id="rect1634-2-6-9-2-2-4-3-7-5-0"
       style="fill:#8c8c8c;stroke:#8b8b8b;stroke-width:1.00001;stroke-linejoin:round"
       d="m 34.572357,5.8090429 h 3.373349 v 3.2573145 h -3.373349 z" /><path
       id="rect1634-3-9-0-2-2-9-5-2-6-2-7"
       style="fill:#8c8c8c;stroke:#8b8b8b;stroke-width:1.00001;stroke-linejoin:round"
       d="m 29.337147,5.8090429 h 3.373348 v 3.2573145 h -3.373348 z" /><path
       id="rect1634-3-9-0-2-2-9-5-2-6-2-7-5"
       style="fill:#17faff;stroke:#17faff;stroke-width:1.00001;stroke-linejoin:round"
       d="m 21.509674,5.8090429 h 3.373349 v 3.2573145 h -3.373349 z" /><path
       id="rect1634-6-1-6-0-8-3-0-0-5-5-8"
       style="fill:#8c8c8c;stroke:#8b8b8b;stroke-width:1.00001;stroke-linejoin:round"
       d="M 45.042782,5.8090429 H 48.41613 V 9.0663574 H 45.042782 Z" /><path
       id="rect1634-3-7-2-2-2-9-1-3-6-6-4-6"
       style="fill:#8c8c8c;stroke:#8b8b8b;stroke-width:1.00001;stroke-linejoin:round"
       d="m 39.807575,5.8090429 h 3.373349 v 3.2573145 h -3.373349 z" /><path
       id="rect1634-5-7-6-3-7-9-6-1-9-7-8"
       style="fill:#8c8c8c;stroke:#8b8b8b;stroke-width:1.00001;stroke-linejoin:round"
       d="m 55.513233,5.8090429 h 3.373349 v 3.2573145 h -3.373349 z" /><path
       id="rect1634-3-3-0-1-7-3-4-1-5-3-4-8"
       style="fill:#8c8c8c;stroke:#8b8b8b;stroke-width:1.00001;stroke-linejoin:round"
       d="m 50.277992,5.8090429 h 3.373349 v 3.2573145 h -3.373349 z" /><path
       id="rect1634-6-5-9-8-5-6-7-0-5-7-4-4"
       style="fill:#8c8c8c;stroke:#8b8b8b;stroke-width:1.00001;stroke-linejoin:round"
       d="m 65.983643,5.8090429 h 3.373348 v 3.2573145 h -3.373348 z" /><path
       id="rect1634-3-7-6-3-7-9-1-8-6-4-4-3-3"
       style="fill:#8c8c8c;stroke:#8b8b8b;stroke-width:1.00001;stroke-linejoin:round"
       d="m 60.748444,5.8090429 h 3.373348 v 3.2573145 h -3.373348 z" /><path
       id="rect1634-2-6-9-2-2-4-3-7-5-0-1"
       style="fill:#8c8c8c;stroke:#8b8b8b;stroke-width:1.00001;stroke-linejoin:round"
       d="m 76.454056,5.8090429 h 3.373348 v 3.2573145 h -3.373348 z" /><path
       id="rect1634-3-9-0-2-2-9-5-2-6-2-7-4"
       style="fill:#8c8c8c;stroke:#8b8b8b;stroke-width:1.00001;stroke-linejoin:round"
       d="m 71.218849,5.8090429 h 3.373349 v 3.2573145 h -3.373349 z" /><path
       id="rect1634-6-1-6-0-8-3-0-0-5-5-8-9"
       style="fill:#8c8c8c;stroke:#8b8b8b;stroke-width:1.00001;stroke-linejoin:round"
       d="m 86.924484,5.8090429 h 3.373349 v 3.2573145 h -3.373349 z" /><path
       id="rect1634-3-7-2-2-2-9-1-3-6-6-4-6-2"
       style="fill:#8c8c8c;stroke:#8b8b8b;stroke-width:1.00001;stroke-linejoin:round"
       d="m 81.68927,5.8090429 h 3.373348 V 9.0663574 H 81.68927 Z" /><path
       id="rect1634-3-3-0-1-7-3-4-1-5-3-4-8-6"
       style="fill:#8c8c8c;stroke:#8b8b8b;stroke-width:1.00001;stroke-linejoin:round"
       d="m 92.159691,5.8090429 h 3.373348 v 3.2573145 h -3.373348 z" /><g
       aria-label="esc"
       id="text3674"
       style="font-weight:bold;font-size:1.41113px;-inkscape-font-specification:'sans-serif Bold';text-align:center;text-anchor:middle;opacity:1;stroke:#010101;stroke-width:0.300003;stroke-linejoin:round;paint-order:stroke fill markers"><path
         d="m 22.395079,8.5153154 v 0.070281 h -0.576717 q 0.009,0.086817 0.0627,0.1302263 0.05374,0.043409 0.150208,0.043409 0.07786,0 0.159166,-0.022738 0.08199,-0.023427 0.168123,-0.070281 v 0.1901718 q -0.08751,0.033073 -0.175014,0.04961 -0.08751,0.017226 -0.175013,0.017226 -0.209464,0 -0.32591,-0.1061103 -0.115757,-0.1067994 -0.115757,-0.2990383 0,-0.1887938 0.11369,-0.2969712 0.114378,-0.1081775 0.314197,-0.1081775 0.181903,0 0.29077,0.1095555 0.109555,0.1095555 0.109555,0.2928371 z M 22.141517,8.433321 q 0,-0.070281 -0.04134,-0.1130006 -0.04065,-0.043409 -0.106799,-0.043409 -0.07166,0 -0.116446,0.040653 -0.04479,0.039964 -0.05581,0.1157568 z"
         id="path8245" /><path
         d="m 23.184705,8.1556426 v 0.1874157 q -0.07924,-0.033073 -0.152964,-0.04961 -0.07373,-0.016537 -0.139184,-0.016537 -0.07028,0 -0.104732,0.017915 -0.03376,0.017226 -0.03376,0.053744 0,0.029628 0.02549,0.045476 0.02618,0.015848 0.09302,0.023427 l 0.04341,0.0062 q 0.189483,0.024116 0.254941,0.079238 0.06546,0.055122 0.06546,0.1729461 0,0.123336 -0.09095,0.1853486 -0.09095,0.062012 -0.271477,0.062012 -0.07648,0 -0.158477,-0.012403 -0.08131,-0.011713 -0.167434,-0.03583 V 8.6875724 q 0.07373,0.03583 0.150898,0.053744 0.07786,0.017915 0.157787,0.017915 0.07235,0 0.108866,-0.019982 0.03652,-0.019982 0.03652,-0.059257 0,-0.033073 -0.02549,-0.048921 -0.02481,-0.016537 -0.09991,-0.025494 l -0.04341,-0.00551 q -0.164678,-0.020671 -0.230824,-0.076482 -0.06615,-0.055811 -0.06615,-0.169501 0,-0.122647 0.08406,-0.1819034 0.08406,-0.059257 0.257697,-0.059257 0.06821,0 0.143318,0.010336 0.0751,0.010335 0.163299,0.032384 z"
         id="path8247" /><path
         d="m 24.045302,8.1556426 v 0.2011963 q -0.0503,-0.034451 -0.101287,-0.050988 -0.0503,-0.016537 -0.104733,-0.016537 -0.103354,0 -0.161232,0.060634 -0.05719,0.059945 -0.05719,0.1681229 0,0.1081774 0.05719,0.1688119 0.05788,0.059946 0.161232,0.059946 0.05788,0 0.109556,-0.017226 0.05237,-0.017226 0.09646,-0.050988 v 0.2018853 q -0.05788,0.02136 -0.117824,0.031695 -0.05926,0.011024 -0.119202,0.011024 -0.208776,0 -0.326599,-0.1067994 -0.117824,-0.1074884 -0.117824,-0.2983492 0,-0.1908609 0.117824,-0.2976602 0.117823,-0.1074885 0.326599,-0.1074885 0.06064,0 0.119202,0.011024 0.05926,0.010335 0.117824,0.031695 z"
         id="path8249" /></g><g
       aria-label="~
`"
       id="text3674-2"
       style="font-weight:bold;font-size:2.11669px;-inkscape-font-specification:'sans-serif Bold';text-align:center;text-anchor:middle;stroke:#010101;stroke-width:0.300003;stroke-linejoin:round;paint-order:stroke fill markers"><path
         d="m 22.891871,11.343162 v 0.252184 q -0.109555,0.08268 -0.202574,0.118857 -0.09199,0.03514 -0.191205,0.03514 -0.110588,0 -0.258385,-0.05994 -0.01447,-0.0062 -0.02274,-0.0093 -0.0072,-0.0031 -0.02274,-0.0093 -0.160199,-0.06305 -0.257352,-0.06305 -0.09095,0 -0.179836,0.04031 -0.08888,0.03927 -0.190171,0.125059 v -0.252184 q 0.110589,-0.08268 0.202574,-0.117824 0.09199,-0.03617 0.191205,-0.03617 0.110588,0 0.258385,0.05994 0.0155,0.0062 0.02274,0.0093 0.0072,0.0031 0.02274,0.0093 0.160199,0.06305 0.257352,0.06305 0.08888,0 0.175702,-0.03824 0.08785,-0.03927 0.194305,-0.127126 z"
         id="path8252" /><path
         d="m 22.089844,13.174595 0.291458,0.388611 h -0.202573 l -0.381377,-0.388611 z"
         id="path8254" /></g><g
       aria-label="e"
       id="text3674-2-2"
       style="font-weight:bold;font-size:2.11669px;-inkscape-font-specification:'sans-serif Bold';text-align:center;text-anchor:middle;stroke:#010101;stroke-width:0.300003;stroke-linejoin:round;paint-order:stroke fill markers"><path
         d="m 42.115408,17.570823 v 0.105421 h -0.865073 q 0.01344,0.130226 0.09405,0.195339 0.08062,0.06511 0.225312,0.06511 0.11679,0 0.238748,-0.03411 0.122991,-0.03514 0.252184,-0.105421 v 0.285257 q -0.13126,0.04961 -0.26252,0.07441 -0.131259,0.02584 -0.262519,0.02584 -0.314196,0 -0.488864,-0.159165 -0.173635,-0.160199 -0.173635,-0.448557 0,-0.28319 0.170534,-0.445455 0.171568,-0.162266 0.471294,-0.162266 0.272855,0 0.436154,0.164333 0.164333,0.164332 0.164333,0.439254 z m -0.380342,-0.122991 q 0,-0.105421 -0.06201,-0.169501 -0.06098,-0.06511 -0.160199,-0.06511 -0.107488,0 -0.174668,0.06098 -0.06718,0.05994 -0.08372,0.173635 z"
         id="path8257" /></g><g
       aria-label="w"
       id="text3674-2-2-1"
       style="font-weight:bold;font-size:2.11669px;-inkscape-font-specification:'sans-serif Bold';text-align:center;text-anchor:middle;stroke:#010101;stroke-width:0.300003;stroke-linejoin:round;paint-order:stroke fill markers"><path
         d="m 35.355204,16.996175 h 0.359672 l 0.194306,0.797893 0.195339,-0.797893 h 0.309028 l 0.194306,0.789625 0.195339,-0.789625 h 0.359672 l -0.304895,1.157565 h -0.404114 l -0.195339,-0.795826 -0.194305,0.795826 h -0.404114 z"
         id="path8260" /></g><g
       aria-label="a"
       id="text3674-2-2-1-6"
       style="font-weight:bold;font-size:2.11669px;-inkscape-font-specification:'sans-serif Bold';text-align:center;text-anchor:middle;stroke:#010101;stroke-width:0.300003;stroke-linejoin:round;paint-order:stroke fill markers"><path
         d="m 32.381111,22.700432 q -0.115756,0 -0.174668,0.03927 -0.05788,0.03927 -0.05788,0.115756 0,0.07028 0.04651,0.110589 0.04754,0.03927 0.13126,0.03927 0.104387,0 0.175702,-0.07442 0.07131,-0.07545 0.07131,-0.188105 v -0.04237 z m 0.565347,-0.139528 v 0.660432 H 32.57335 v -0.171567 q -0.07441,0.105421 -0.167434,0.153997 -0.09302,0.04754 -0.226345,0.04754 -0.179836,0 -0.292492,-0.104388 -0.111622,-0.105421 -0.111622,-0.272854 0,-0.203607 0.139528,-0.298693 0.140561,-0.09509 0.440288,-0.09509 h 0.218077 v -0.02894 q 0,-0.08785 -0.06925,-0.128159 -0.06925,-0.04134 -0.21601,-0.04134 -0.118857,0 -0.221178,0.02377 -0.10232,0.02377 -0.190171,0.07131 v -0.282156 q 0.118857,-0.02894 0.238748,-0.04341 0.11989,-0.0155 0.239781,-0.0155 0.313163,0 0.451657,0.124025 0.139528,0.122991 0.139528,0.401013 z"
         id="path8263" /></g><g
       aria-label="s"
       id="text3674-2-2-1-6-5"
       style="font-weight:bold;font-size:2.11669px;-inkscape-font-specification:'sans-serif Bold';text-align:center;text-anchor:middle;stroke:#010101;stroke-width:0.300003;stroke-linejoin:round;paint-order:stroke fill markers"><path
         d="m 38.043696,22.099945 v 0.281123 q -0.118857,-0.04961 -0.229446,-0.07441 -0.110589,-0.0248 -0.208775,-0.0248 -0.105421,0 -0.157098,0.02687 -0.05064,0.02584 -0.05064,0.08062 0,0.04444 0.03824,0.06821 0.03927,0.02377 0.139528,0.03514 l 0.06511,0.0093 q 0.284224,0.03617 0.38241,0.118857 0.09819,0.08268 0.09819,0.259418 0,0.185004 -0.136427,0.278022 -0.136427,0.09302 -0.407215,0.09302 -0.114723,0 -0.237714,-0.0186 -0.121957,-0.01757 -0.25115,-0.05374 v -0.281123 q 0.110589,0.05374 0.226345,0.08062 0.11679,0.02687 0.236681,0.02687 0.108522,0 0.163299,-0.02997 0.05478,-0.02997 0.05478,-0.08888 0,-0.04961 -0.03824,-0.07338 -0.03721,-0.02481 -0.149863,-0.03824 l -0.06511,-0.0083 q -0.247016,-0.03101 -0.346236,-0.114723 -0.09922,-0.08372 -0.09922,-0.254251 0,-0.18397 0.126092,-0.272855 0.126092,-0.08888 0.386544,-0.08888 0.10232,0 0.214976,0.0155 0.112656,0.0155 0.244949,0.04858 z"
         id="path8266" /></g><g
       aria-label="d"
       id="text3674-2-2-1-6-5-4"
       style="font-weight:bold;font-size:2.11669px;-inkscape-font-specification:'sans-serif Bold';text-align:center;text-anchor:middle;stroke:#010101;stroke-width:0.300003;stroke-linejoin:round;paint-order:stroke fill markers"><path
         d="m 43.06083,22.444631 v -0.620124 h 0.372074 v 1.608188 H 43.06083 v -0.167433 q -0.07648,0.10232 -0.168467,0.149863 -0.09199,0.04754 -0.212909,0.04754 -0.213943,0 -0.351404,-0.169501 -0.137461,-0.170534 -0.137461,-0.43822 0,-0.267687 0.137461,-0.437188 0.137461,-0.170534 0.351404,-0.170534 0.11989,0 0.211875,0.04858 0.09302,0.04754 0.169501,0.14883 z m -0.243916,0.749317 q 0.118858,0 0.18087,-0.08682 0.06305,-0.08682 0.06305,-0.252183 0,-0.165367 -0.06305,-0.252184 -0.06201,-0.08682 -0.18087,-0.08682 -0.117823,0 -0.180869,0.08682 -0.06201,0.08682 -0.06201,0.252184 0,0.165366 0.06201,0.252183 0.06305,0.08682 0.180869,0.08682 z"
         id="path8269" /></g><g
       aria-label="space"
       id="text3674-2-2-1-6-5-4-0"
       style="font-weight:bold;font-size:1.41113px;-inkscape-font-specification:'sans-serif Bold';text-align:center;text-anchor:middle;stroke:#010101;stroke-width:0.300003;stroke-linejoin:round;paint-order:stroke fill markers"><path
         d="m 44.301013,33.31334 v 0.187416 q -0.07924,-0.03307 -0.152964,-0.04961 -0.07373,-0.01654 -0.139184,-0.01654 -0.07028,0 -0.104732,0.01791 -0.03376,0.01723 -0.03376,0.05374 0,0.02963 0.02549,0.04548 0.02618,0.01585 0.09302,0.02343 l 0.04341,0.0062 q 0.189483,0.02412 0.254941,0.07924 0.06546,0.05512 0.06546,0.172946 0,0.123336 -0.09095,0.185348 -0.09095,0.06201 -0.271477,0.06201 -0.07648,0 -0.158477,-0.0124 -0.08131,-0.01171 -0.167434,-0.03583 V 33.84527 q 0.07373,0.03583 0.150897,0.05374 0.07786,0.01792 0.157788,0.01792 0.07235,0 0.108866,-0.01998 0.03652,-0.01998 0.03652,-0.05926 0,-0.03307 -0.02549,-0.04892 -0.02481,-0.01654 -0.09991,-0.02549 l -0.04341,-0.0055 q -0.164678,-0.02067 -0.230825,-0.07648 -0.06615,-0.05581 -0.06615,-0.169501 0,-0.122647 0.08406,-0.181903 0.08406,-0.05926 0.257697,-0.05926 0.06821,0 0.143318,0.01034 0.0751,0.01033 0.163299,0.03238 z"
         id="path8272" /><path
         d="m 44.784711,33.949313 v 0.405149 h -0.246672 v -1.065238 h 0.246672 v 0.113001 q 0.05099,-0.06753 0.113001,-0.09922 0.06201,-0.03238 0.142629,-0.03238 0.142629,0 0.234269,0.113689 0.09164,0.113001 0.09164,0.291459 0,0.178458 -0.09164,0.292148 -0.09164,0.113001 -0.234269,0.113001 -0.08062,0 -0.142629,-0.0317 -0.06201,-0.03238 -0.113001,-0.09991 z M 44.9487,33.449768 q -0.07924,0 -0.121958,0.05857 -0.04203,0.05788 -0.04203,0.167434 0,0.109556 0.04203,0.168123 0.04272,0.05788 0.121958,0.05788 0.07924,0 0.12058,-0.05788 0.04203,-0.05788 0.04203,-0.168123 0,-0.110244 -0.04203,-0.168123 -0.04134,-0.05788 -0.12058,-0.05788 z"
         id="path8274" /><path
         d="m 45.894047,33.713666 q -0.07717,0 -0.116446,0.02618 -0.03859,0.02618 -0.03859,0.07717 0,0.04685 0.03101,0.07373 0.03169,0.02618 0.08751,0.02618 0.06959,0 0.117135,-0.04961 0.04754,-0.0503 0.04754,-0.125403 v -0.02825 z m 0.376898,-0.09302 v 0.440289 h -0.248739 v -0.114379 q -0.04961,0.07028 -0.111623,0.102665 -0.06201,0.0317 -0.150897,0.0317 -0.119891,0 -0.194995,-0.06959 -0.07442,-0.07028 -0.07442,-0.181904 0,-0.135738 0.09302,-0.199129 0.09371,-0.06339 0.293526,-0.06339 h 0.145385 v -0.01929 q 0,-0.05857 -0.04616,-0.08544 -0.04617,-0.02756 -0.144007,-0.02756 -0.07924,0 -0.147452,0.01585 -0.06821,0.01585 -0.126781,0.04754 v -0.188105 q 0.07924,-0.01929 0.159165,-0.02894 0.07993,-0.01034 0.159855,-0.01034 0.208776,0 0.301105,0.08268 0.09302,0.08199 0.09302,0.267343 z"
         id="path8276" /><path
         d="m 47.123962,33.31334 v 0.201197 q -0.0503,-0.03445 -0.101287,-0.05099 -0.0503,-0.01654 -0.104732,-0.01654 -0.103354,0 -0.161233,0.06063 -0.05719,0.05995 -0.05719,0.168123 0,0.108178 0.05719,0.168812 0.05788,0.05995 0.161233,0.05995 0.05788,0 0.109555,-0.01723 0.05237,-0.01723 0.09646,-0.05099 v 0.201885 q -0.05788,0.02136 -0.117824,0.03169 -0.05926,0.01102 -0.119202,0.01102 -0.208775,0 -0.326599,-0.1068 -0.117824,-0.107488 -0.117824,-0.298349 0,-0.190861 0.117824,-0.29766 0.117824,-0.107488 0.326599,-0.107488 0.06064,0 0.119202,0.01102 0.05926,0.01034 0.117824,0.03169 z"
         id="path8278" /><path
         d="m 48.107206,33.673013 v 0.07028 h -0.576717 q 0.009,0.08682 0.0627,0.130226 0.05374,0.04341 0.150208,0.04341 0.07786,0 0.159165,-0.02274 0.08199,-0.02343 0.168123,-0.07028 v 0.190172 q -0.08751,0.03307 -0.175013,0.04961 -0.08751,0.01723 -0.175013,0.01723 -0.209465,0 -0.325911,-0.106111 -0.115756,-0.106799 -0.115756,-0.299038 0,-0.188794 0.113689,-0.296971 0.114379,-0.108177 0.314197,-0.108177 0.181904,0 0.29077,0.109555 0.109556,0.109556 0.109556,0.292837 z m -0.253563,-0.08199 q 0,-0.07028 -0.04134,-0.113001 -0.04065,-0.04341 -0.1068,-0.04341 -0.07166,0 -0.116446,0.04065 -0.04479,0.03996 -0.05581,0.115757 z"
         id="path8280" /></g><g
       aria-label="&lt;"
       id="text3674-2-2-1-6-5-4-0-1"
       style="font-weight:bold;font-size:2.11669px;-inkscape-font-specification:'sans-serif Bold';text-align:center;text-anchor:middle;stroke:#010101;stroke-width:0.300003;stroke-linejoin:round;paint-order:stroke fill markers"><path
         d="m 84.038445,32.438743 -0.996332,0.343136 0.996332,0.341068 v 0.258385 l -1.324998,-0.478529 v -0.243916 l 1.324998,-0.478529 z"
         id="path8283" /></g><g
       aria-label="&lt;"
       transform="scale(-1)"
       id="text3674-2-2-1-6-5-4-0-1-7"
       style="font-weight:bold;font-size:2.11669px;-inkscape-font-specification:'sans-serif Bold';text-align:center;text-anchor:middle;stroke:#010101;stroke-width:0.300003;stroke-linejoin:round;paint-order:stroke fill markers"><path
         d="m -93.18386,-33.122948 -0.996333,0.343135 0.996333,0.341069 v 0.258385 l -1.324998,-0.478529 v -0.243916 l 1.324998,-0.478529 z"
         id="path8286" /></g><g
       aria-label="^"
       transform="scale(-1)"
       id="text3674-2-2-1-6-5-4-0-1-7-1"
       style="font-weight:bold;font-size:2.11669px;-inkscape-font-specification:'sans-serif Bold';text-align:center;text-anchor:middle;stroke:#010101;stroke-width:0.300003;stroke-linejoin:round;paint-order:stroke fill markers"><path
         d="m -88.484027,-34.191162 0.545709,0.575682 h -0.249083 l -0.423752,-0.311096 -0.422718,0.311096 h -0.250116 l 0.545709,-0.575682 z"
         id="path8289" /></g><g
       aria-label="^"
       transform="scale(-1,1)"
       id="text3674-2-2-1-6-5-4-0-1-7-1-9"
       style="font-weight:bold;font-size:2.11669px;-inkscape-font-specification:'sans-serif Bold';text-align:center;text-anchor:middle;stroke:#010101;stroke-width:0.300003;stroke-linejoin:round;paint-order:stroke fill markers"><path
         d="m -88.484027,31.331021 0.545709,0.575681 h -0.249083 l -0.423752,-0.311095 -0.422718,0.311095 h -0.250116 l 0.545709,-0.575681 z"
         id="path8292" /></g><g
       aria-label="esc"
       id="text5460"
       style="font-weight:bold;font-size:1.41113px;-inkscape-font-specification:'sans-serif Bold';text-align:center;text-anchor:middle;opacity:1;fill:#ffffff;stroke-width:0.300003;stroke-linejoin:round;paint-order:stroke fill markers"><path
         d="m 22.395079,8.5153154 v 0.070281 h -0.576717 q 0.009,0.086817 0.0627,0.1302263 0.05374,0.043409 0.150208,0.043409 0.07786,0 0.159166,-0.022738 0.08199,-0.023427 0.168123,-0.070281 v 0.1901718 q -0.08751,0.033073 -0.175014,0.04961 -0.08751,0.017226 -0.175013,0.017226 -0.209464,0 -0.32591,-0.1061103 -0.115757,-0.1067994 -0.115757,-0.2990383 0,-0.1887938 0.11369,-0.2969712 0.114378,-0.1081775 0.314197,-0.1081775 0.181903,0 0.29077,0.1095555 0.109555,0.1095555 0.109555,0.2928371 z M 22.141517,8.433321 q 0,-0.070281 -0.04134,-0.1130006 -0.04065,-0.043409 -0.106799,-0.043409 -0.07166,0 -0.116446,0.040653 -0.04479,0.039964 -0.05581,0.1157568 z"
         id="path8295" /><path
         d="m 23.184705,8.1556426 v 0.1874157 q -0.07924,-0.033073 -0.152964,-0.04961 -0.07373,-0.016537 -0.139184,-0.016537 -0.07028,0 -0.104732,0.017915 -0.03376,0.017226 -0.03376,0.053744 0,0.029628 0.02549,0.045476 0.02618,0.015848 0.09302,0.023427 l 0.04341,0.0062 q 0.189483,0.024116 0.254941,0.079238 0.06546,0.055122 0.06546,0.1729461 0,0.123336 -0.09095,0.1853486 -0.09095,0.062012 -0.271477,0.062012 -0.07648,0 -0.158477,-0.012403 -0.08131,-0.011713 -0.167434,-0.03583 V 8.6875724 q 0.07373,0.03583 0.150898,0.053744 0.07786,0.017915 0.157787,0.017915 0.07235,0 0.108866,-0.019982 0.03652,-0.019982 0.03652,-0.059257 0,-0.033073 -0.02549,-0.048921 -0.02481,-0.016537 -0.09991,-0.025494 l -0.04341,-0.00551 q -0.164678,-0.020671 -0.230824,-0.076482 -0.06615,-0.055811 -0.06615,-0.169501 0,-0.122647 0.08406,-0.1819034 0.08406,-0.059257 0.257697,-0.059257 0.06821,0 0.143318,0.010336 0.0751,0.010335 0.163299,0.032384 z"
         id="path8297" /><path
         d="m 24.045302,8.1556426 v 0.2011963 q -0.0503,-0.034451 -0.101287,-0.050988 -0.0503,-0.016537 -0.104733,-0.016537 -0.103354,0 -0.161232,0.060634 -0.05719,0.059945 -0.05719,0.1681229 0,0.1081774 0.05719,0.1688119 0.05788,0.059946 0.161232,0.059946 0.05788,0 0.109556,-0.017226 0.05237,-0.017226 0.09646,-0.050988 v 0.2018853 q -0.05788,0.02136 -0.117824,0.031695 -0.05926,0.011024 -0.119202,0.011024 -0.208776,0 -0.326599,-0.1067994 -0.117824,-0.1074884 -0.117824,-0.2983492 0,-0.1908609 0.117824,-0.2976602 0.117823,-0.1074885 0.326599,-0.1074885 0.06064,0 0.119202,0.011024 0.05926,0.010335 0.117824,0.031695 z"
         id="path8299" /></g><g
       aria-label="~
`"
       id="text5466"
       style="font-weight:bold;font-size:2.11669px;-inkscape-font-specification:'sans-serif Bold';text-align:center;text-anchor:middle;fill:#ffffff;stroke-width:0.300003;stroke-linejoin:round;paint-order:stroke fill markers"><path
         d="m 22.891871,11.343162 v 0.252184 q -0.109555,0.08268 -0.202574,0.118857 -0.09199,0.03514 -0.191205,0.03514 -0.110588,0 -0.258385,-0.05994 -0.01447,-0.0062 -0.02274,-0.0093 -0.0072,-0.0031 -0.02274,-0.0093 -0.160199,-0.06305 -0.257352,-0.06305 -0.09095,0 -0.179836,0.04031 -0.08888,0.03927 -0.190171,0.125059 v -0.252184 q 0.110589,-0.08268 0.202574,-0.117824 0.09199,-0.03617 0.191205,-0.03617 0.110588,0 0.258385,0.05994 0.0155,0.0062 0.02274,0.0093 0.0072,0.0031 0.02274,0.0093 0.160199,0.06305 0.257352,0.06305 0.08888,0 0.175702,-0.03824 0.08785,-0.03927 0.194305,-0.127126 z"
         id="path8302" /><path
         d="m 22.089844,13.174595 0.291458,0.388611 h -0.202573 l -0.381377,-0.388611 z"
         id="path8304" /></g><g
       aria-label="e"
       id="text5470"
       style="font-weight:bold;font-size:2.11669px;-inkscape-font-specification:'sans-serif Bold';text-align:center;text-anchor:middle;fill:#ffffff;stroke-width:0.300003;stroke-linejoin:round;paint-order:stroke fill markers"><path
         d="m 42.115408,17.570823 v 0.105421 h -0.865073 q 0.01344,0.130226 0.09405,0.195339 0.08062,0.06511 0.225312,0.06511 0.11679,0 0.238748,-0.03411 0.122991,-0.03514 0.252184,-0.105421 v 0.285257 q -0.13126,0.04961 -0.26252,0.07441 -0.131259,0.02584 -0.262519,0.02584 -0.314196,0 -0.488864,-0.159165 -0.173635,-0.160199 -0.173635,-0.448557 0,-0.28319 0.170534,-0.445455 0.171568,-0.162266 0.471294,-0.162266 0.272855,0 0.436154,0.164333 0.164333,0.164332 0.164333,0.439254 z m -0.380342,-0.122991 q 0,-0.105421 -0.06201,-0.169501 -0.06098,-0.06511 -0.160199,-0.06511 -0.107488,0 -0.174668,0.06098 -0.06718,0.05994 -0.08372,0.173635 z"
         id="path8307" /></g><g
       aria-label="w"
       id="text5474"
       style="font-weight:bold;font-size:2.11669px;-inkscape-font-specification:'sans-serif Bold';text-align:center;text-anchor:middle;fill:#ffffff;stroke-width:0.300003;stroke-linejoin:round;paint-order:stroke fill markers"><path
         d="m 35.355204,16.996175 h 0.359672 l 0.194306,0.797893 0.195339,-0.797893 h 0.309028 l 0.194306,0.789625 0.195339,-0.789625 h 0.359672 l -0.304895,1.157565 h -0.404114 l -0.195339,-0.795826 -0.194305,0.795826 h -0.404114 z"
         id="path8310" /></g><g
       aria-label="a"
       id="text5478"
       style="font-weight:bold;font-size:2.11669px;-inkscape-font-specification:'sans-serif Bold';text-align:center;text-anchor:middle;fill:#ffffff;stroke-width:0.300003;stroke-linejoin:round;paint-order:stroke fill markers"><path
         d="m 32.381111,22.700432 q -0.115756,0 -0.174668,0.03927 -0.05788,0.03927 -0.05788,0.115756 0,0.07028 0.04651,0.110589 0.04754,0.03927 0.13126,0.03927 0.104387,0 0.175702,-0.07442 0.07131,-0.07545 0.07131,-0.188105 v -0.04237 z m 0.565347,-0.139528 v 0.660432 H 32.57335 v -0.171567 q -0.07441,0.105421 -0.167434,0.153997 -0.09302,0.04754 -0.226345,0.04754 -0.179836,0 -0.292492,-0.104388 -0.111622,-0.105421 -0.111622,-0.272854 0,-0.203607 0.139528,-0.298693 0.140561,-0.09509 0.440288,-0.09509 h 0.218077 v -0.02894 q 0,-0.08785 -0.06925,-0.128159 -0.06925,-0.04134 -0.21601,-0.04134 -0.118857,0 -0.221178,0.02377 -0.10232,0.02377 -0.190171,0.07131 v -0.282156 q 0.118857,-0.02894 0.238748,-0.04341 0.11989,-0.0155 0.239781,-0.0155 0.313163,0 0.451657,0.124025 0.139528,0.122991 0.139528,0.401013 z"
         id="path8313" /></g><g
       aria-label="s"
       id="text5482"
       style="font-weight:bold;font-size:2.11669px;-inkscape-font-specification:'sans-serif Bold';text-align:center;text-anchor:middle;fill:#ffffff;stroke-width:0.300003;stroke-linejoin:round;paint-order:stroke fill markers"><path
         d="m 38.043696,22.099945 v 0.281123 q -0.118857,-0.04961 -0.229446,-0.07441 -0.110589,-0.0248 -0.208775,-0.0248 -0.105421,0 -0.157098,0.02687 -0.05064,0.02584 -0.05064,0.08062 0,0.04444 0.03824,0.06821 0.03927,0.02377 0.139528,0.03514 l 0.06511,0.0093 q 0.284224,0.03617 0.38241,0.118857 0.09819,0.08268 0.09819,0.259418 0,0.185004 -0.136427,0.278022 -0.136427,0.09302 -0.407215,0.09302 -0.114723,0 -0.237714,-0.0186 -0.121957,-0.01757 -0.25115,-0.05374 v -0.281123 q 0.110589,0.05374 0.226345,0.08062 0.11679,0.02687 0.236681,0.02687 0.108522,0 0.163299,-0.02997 0.05478,-0.02997 0.05478,-0.08888 0,-0.04961 -0.03824,-0.07338 -0.03721,-0.02481 -0.149863,-0.03824 l -0.06511,-0.0083 q -0.247016,-0.03101 -0.346236,-0.114723 -0.09922,-0.08372 -0.09922,-0.254251 0,-0.18397 0.126092,-0.272855 0.126092,-0.08888 0.386544,-0.08888 0.10232,0 0.214976,0.0155 0.112656,0.0155 0.244949,0.04858 z"
         id="path8316" /></g><g
       aria-label="d"
       id="text5486"
       style="font-weight:bold;font-size:2.11669px;-inkscape-font-specification:'sans-serif Bold';text-align:center;text-anchor:middle;fill:#ffffff;stroke-width:0.300003;stroke-linejoin:round;paint-order:stroke fill markers"><path
         d="m 43.06083,22.444631 v -0.620124 h 0.372074 v 1.608188 H 43.06083 v -0.167433 q -0.07648,0.10232 -0.168467,0.149863 -0.09199,0.04754 -0.212909,0.04754 -0.213943,0 -0.351404,-0.169501 -0.137461,-0.170534 -0.137461,-0.43822 0,-0.267687 0.137461,-0.437188 0.137461,-0.170534 0.351404,-0.170534 0.11989,0 0.211875,0.04858 0.09302,0.04754 0.169501,0.14883 z m -0.243916,0.749317 q 0.118858,0 0.18087,-0.08682 0.06305,-0.08682 0.06305,-0.252183 0,-0.165367 -0.06305,-0.252184 -0.06201,-0.08682 -0.18087,-0.08682 -0.117823,0 -0.180869,0.08682 -0.06201,0.08682 -0.06201,0.252184 0,0.165366 0.06201,0.252183 0.06305,0.08682 0.180869,0.08682 z"
         id="path8319" /></g><g
       aria-label="space"
       id="text5490"
       style="font-weight:bold;font-size:1.41113px;-inkscape-font-specification:'sans-serif Bold';text-align:center;text-anchor:middle;fill:#ffffff;stroke-width:0.300003;stroke-linejoin:round;paint-order:stroke fill markers"><path
         d="m 44.301013,33.31334 v 0.187416 q -0.07924,-0.03307 -0.152964,-0.04961 -0.07373,-0.01654 -0.139184,-0.01654 -0.07028,0 -0.104732,0.01791 -0.03376,0.01723 -0.03376,0.05374 0,0.02963 0.02549,0.04548 0.02618,0.01585 0.09302,0.02343 l 0.04341,0.0062 q 0.189483,0.02412 0.254941,0.07924 0.06546,0.05512 0.06546,0.172946 0,0.123336 -0.09095,0.185348 -0.09095,0.06201 -0.271477,0.06201 -0.07648,0 -0.158477,-0.0124 -0.08131,-0.01171 -0.167434,-0.03583 V 33.84527 q 0.07373,0.03583 0.150897,0.05374 0.07786,0.01792 0.157788,0.01792 0.07235,0 0.108866,-0.01998 0.03652,-0.01998 0.03652,-0.05926 0,-0.03307 -0.02549,-0.04892 -0.02481,-0.01654 -0.09991,-0.02549 l -0.04341,-0.0055 q -0.164678,-0.02067 -0.230825,-0.07648 -0.06615,-0.05581 -0.06615,-0.169501 0,-0.122647 0.08406,-0.181903 0.08406,-0.05926 0.257697,-0.05926 0.06821,0 0.143318,0.01034 0.0751,0.01033 0.163299,0.03238 z"
         id="path8322" /><path
         d="m 44.784711,33.949313 v 0.405149 h -0.246672 v -1.065238 h 0.246672 v 0.113001 q 0.05099,-0.06753 0.113001,-0.09922 0.06201,-0.03238 0.142629,-0.03238 0.142629,0 0.234269,0.113689 0.09164,0.113001 0.09164,0.291459 0,0.178458 -0.09164,0.292148 -0.09164,0.113001 -0.234269,0.113001 -0.08062,0 -0.142629,-0.0317 -0.06201,-0.03238 -0.113001,-0.09991 z M 44.9487,33.449768 q -0.07924,0 -0.121958,0.05857 -0.04203,0.05788 -0.04203,0.167434 0,0.109556 0.04203,0.168123 0.04272,0.05788 0.121958,0.05788 0.07924,0 0.12058,-0.05788 0.04203,-0.05788 0.04203,-0.168123 0,-0.110244 -0.04203,-0.168123 -0.04134,-0.05788 -0.12058,-0.05788 z"
         id="path8324" /><path
         d="m 45.894047,33.713666 q -0.07717,0 -0.116446,0.02618 -0.03859,0.02618 -0.03859,0.07717 0,0.04685 0.03101,0.07373 0.03169,0.02618 0.08751,0.02618 0.06959,0 0.117135,-0.04961 0.04754,-0.0503 0.04754,-0.125403 v -0.02825 z m 0.376898,-0.09302 v 0.440289 h -0.248739 v -0.114379 q -0.04961,0.07028 -0.111623,0.102665 -0.06201,0.0317 -0.150897,0.0317 -0.119891,0 -0.194995,-0.06959 -0.07442,-0.07028 -0.07442,-0.181904 0,-0.135738 0.09302,-0.199129 0.09371,-0.06339 0.293526,-0.06339 h 0.145385 v -0.01929 q 0,-0.05857 -0.04616,-0.08544 -0.04617,-0.02756 -0.144007,-0.02756 -0.07924,0 -0.147452,0.01585 -0.06821,0.01585 -0.126781,0.04754 v -0.188105 q 0.07924,-0.01929 0.159165,-0.02894 0.07993,-0.01034 0.159855,-0.01034 0.208776,0 0.301105,0.08268 0.09302,0.08199 0.09302,0.267343 z"
         id="path8326" /><path
         d="m 47.123962,33.31334 v 0.201197 q -0.0503,-0.03445 -0.101287,-0.05099 -0.0503,-0.01654 -0.104732,-0.01654 -0.103354,0 -0.161233,0.06063 -0.05719,0.05995 -0.05719,0.168123 0,0.108178 0.05719,0.168812 0.05788,0.05995 0.161233,0.05995 0.05788,0 0.109555,-0.01723 0.05237,-0.01723 0.09646,-0.05099 v 0.201885 q -0.05788,0.02136 -0.117824,0.03169 -0.05926,0.01102 -0.119202,0.01102 -0.208775,0 -0.326599,-0.1068 -0.117824,-0.107488 -0.117824,-0.298349 0,-0.190861 0.117824,-0.29766 0.117824,-0.107488 0.326599,-0.107488 0.06064,0 0.119202,0.01102 0.05926,0.01034 0.117824,0.03169 z"
         id="path8328" /><path
         d="m 48.107206,33.673013 v 0.07028 h -0.576717 q 0.009,0.08682 0.0627,0.130226 0.05374,0.04341 0.150208,0.04341 0.07786,0 0.159165,-0.02274 0.08199,-0.02343 0.168123,-0.07028 v 0.190172 q -0.08751,0.03307 -0.175013,0.04961 -0.08751,0.01723 -0.175013,0.01723 -0.209465,0 -0.325911,-0.106111 -0.115756,-0.106799 -0.115756,-0.299038 0,-0.188794 0.113689,-0.296971 0.114379,-0.108177 0.314197,-0.108177 0.181904,0 0.29077,0.109555 0.109556,0.109556 0.109556,0.292837 z m -0.253563,-0.08199 q 0,-0.07028 -0.04134,-0.113001 -0.04065,-0.04341 -0.1068,-0.04341 -0.07166,0 -0.116446,0.04065 -0.04479,0.03996 -0.05581,0.115757 z"
         id="path8330" /></g><g
       aria-label="&lt;"
       id="text5494"
       style="font-weight:bold;font-size:2.11669px;-inkscape-font-specification:'sans-serif Bold';text-align:center;text-anchor:middle;fill:#ffffff;stroke-width:0.300003;stroke-linejoin:round;paint-order:stroke fill markers"><path
         d="m 84.038445,32.438743 -0.996332,0.343136 0.996332,0.341068 v 0.258385 l -1.324998,-0.478529 v -0.243916 l 1.324998,-0.478529 z"
         id="path8333" /></g><g
       aria-label="&lt;"
       transform="scale(-1)"
       id="text5498"
       style="font-weight:bold;font-size:2.11669px;-inkscape-font-specification:'sans-serif Bold';text-align:center;text-anchor:middle;fill:#ffffff;stroke-width:0.300003;stroke-linejoin:round;paint-order:stroke fill markers"><path
         d="m -93.18386,-33.122948 -0.996333,0.343135 0.996333,0.341069 v 0.258385 l -1.324998,-0.478529 v -0.243916 l 1.324998,-0.478529 z"
         id="path8336" /></g><g
       aria-label="^"
       transform="scale(-1)"
       id="text5502"
       style="font-weight:bold;font-size:2.11669px;-inkscape-font-specification:'sans-serif Bold';text-align:center;text-anchor:middle;fill:#ffffff;stroke-width:0.300003;stroke-linejoin:round;paint-order:stroke fill markers"><path
         d="m -88.484027,-34.191162 0.545709,0.575682 h -0.249083 l -0.423752,-0.311096 -0.422718,0.311096 h -0.250116 l 0.545709,-0.575682 z"
         id="path8339" /></g><g
       aria-label="^"
       transform="scale(-1,1)"
       id="text5506"
       style="font-weight:bold;font-size:2.11669px;-inkscape-font-specification:'sans-serif Bold';text-align:center;text-anchor:middle;fill:#ffffff;stroke-width:0.300003;stroke-linejoin:round;paint-order:stroke fill markers"><path
         d="m -88.484027,31.331021 0.545709,0.575681 h -0.249083 l -0.423752,-0.311095 -0.422718,0.311095 h -0.250116 l 0.545709,-0.575681 z"
         id="path8342" /></g><path
       style="opacity:1;fill:#000000;fill-opacity:1;stroke:#010000;stroke-width:0.500005;stroke-linecap:round;stroke-linejoin:round;stroke-dasharray:none;stroke-opacity:0.49301884;paint-order:stroke fill markers"
       d="m 19.135357,3.3139526 3.96099,4.0694566"
       id="path5879"
       sodipodi:nodetypes="cc" /><g
       aria-label="Pause"
       id="text6383"
       style="font-weight:bold;font-size:3.14299px;-inkscape-font-specification:'sans-serif Bold';text-align:center;text-anchor:middle;opacity:1;fill:#ffffff;stroke-width:0.445463;stroke-linecap:round;stroke-linejoin:round;paint-order:stroke fill markers"><path
         d="m 14.045871,0.77269775 h 0.98065 q 0.437379,0 0.670648,0.19490222 0.234803,0.19336753 0.234803,0.55247873 0,0.3606458 -0.234803,0.5555481 Q 15.4639,2.2689943 15.026521,2.2689943 H 14.636717 V 3.0639498 H 14.045871 Z M 14.636717,1.2008688 V 1.8408233 H 14.9636 q 0.171882,0 0.265497,-0.082872 0.09361,-0.084406 0.09361,-0.2378728 0,-0.1534663 -0.09361,-0.2363381 -0.09361,-0.082872 -0.265497,-0.082872 z"
         id="path8345" /><path
         d="m 17.01084,2.2904796 q -0.171882,0 -0.259358,0.058317 -0.08594,0.058317 -0.08594,0.1718823 0,0.1043571 0.06906,0.1642089 0.07059,0.058317 0.194902,0.058317 0.155001,0 0.260893,-0.1104957 0.105892,-0.1120304 0.105892,-0.2793087 V 2.2904796 Z M 17.850301,2.0833001 V 3.0639498 H 17.296288 V 2.8091957 q -0.110496,0.1565357 -0.248616,0.2286648 -0.138119,0.070595 -0.336091,0.070595 -0.267031,0 -0.434309,-0.155001 -0.165744,-0.1565357 -0.165744,-0.4051511 0,-0.3023286 0.207179,-0.4435176 0.208715,-0.141189 0.653767,-0.141189 h 0.323814 v -0.042971 q 0,-0.1304464 -0.102823,-0.1902982 -0.102822,-0.061387 -0.320744,-0.061387 -0.176486,0 -0.328418,0.035297 -0.151932,0.035297 -0.282378,0.1058917 V 1.391167 q 0.176486,-0.042971 0.354507,-0.064456 0.178021,-0.02302 0.356042,-0.02302 0.465003,0 0.670648,0.1841596 0.207179,0.1826249 0.207179,0.5954493 z"
         id="path8347" /><path
         d="M 18.342928,2.3948367 V 1.3451271 h 0.552479 v 0.1718823 q 0,0.1396543 -0.0015,0.3514378 -0.0015,0.2102489 -0.0015,0.2808434 0,0.2071795 0.01074,0.2992593 0.01074,0.090545 0.03683,0.131981 0.03376,0.053713 0.08748,0.082872 0.05525,0.029159 0.125842,0.029159 0.171882,0 0.270101,-0.131981 0.09822,-0.131981 0.09822,-0.3667845 V 1.3451271 h 0.54941 v 1.7188227 h -0.54941 V 2.8153344 q -0.124307,0.150397 -0.263962,0.2225261 -0.138119,0.070595 -0.305398,0.070595 -0.297724,0 -0.45426,-0.182625 -0.155001,-0.1826249 -0.155001,-0.5309934 z"
         id="path8349" /><path
         d="M 21.941713,1.3988403 V 1.8162687 Q 21.765227,1.7426049 21.601018,1.7057729 21.436809,1.668941 21.291016,1.668941 q -0.156536,0 -0.233269,0.039901 -0.0752,0.038366 -0.0752,0.1197037 0,0.065991 0.05678,0.1012878 0.05832,0.035297 0.20718,0.052179 l 0.09668,0.013812 q 0.422033,0.053713 0.567826,0.1764862 0.145793,0.1227731 0.145793,0.3852005 0,0.2747047 -0.202576,0.4128244 -0.202575,0.1381197 -0.604657,0.1381197 -0.170348,0 -0.352973,-0.027624 -0.18109,-0.026089 -0.372923,-0.079802 V 2.5836003 q 0.164209,0.079802 0.336092,0.1197037 0.173417,0.039901 0.351437,0.039901 0.16114,0 0.242477,-0.044505 0.08134,-0.044505 0.08134,-0.131981 0,-0.073664 -0.05678,-0.1089611 -0.05525,-0.036832 -0.222526,-0.056783 L 21.159035,2.388698 Q 20.79225,2.3426581 20.644923,2.2183504 20.497595,2.0940427 20.497595,1.8408233 q 0,-0.27317 0.187229,-0.4051511 0.187229,-0.131981 0.573964,-0.131981 0.151932,0 0.31921,0.02302 0.167278,0.02302 0.363715,0.072129 z"
         id="path8351" /><path
         d="m 24.18539,2.1999345 v 0.1565356 h -1.284513 q 0.01995,0.1933676 0.139655,0.2900513 0.119704,0.096684 0.334556,0.096684 0.173417,0 0.354508,-0.050644 0.182624,-0.052179 0.374457,-0.1565356 v 0.423567 q -0.194902,0.073664 -0.389804,0.1104958 -0.194902,0.038367 -0.389805,0.038367 -0.466537,0 -0.725895,-0.2363382 -0.257824,-0.2378728 -0.257824,-0.6660438 0,-0.4204977 0.25322,-0.6614398 0.254754,-0.2409421 0.699806,-0.2409421 0.405151,0 0.647628,0.2440114 0.244011,0.2440115 0.244011,0.6522319 z M 23.620634,2.0173096 q 0,-0.1565357 -0.09208,-0.2516848 -0.09055,-0.096684 -0.237873,-0.096684 -0.159605,0 -0.259358,0.090545 -0.09975,0.08901 -0.124308,0.2578234 z"
         id="path8353" /></g><path
       style="fill:#000000;fill-opacity:1;stroke:#010000;stroke-width:0.500005;stroke-linecap:round;stroke-linejoin:round;stroke-dasharray:none;stroke-opacity:0.49301884;paint-order:stroke fill markers"
       d="m 18.251877,12.453184 5.094472,0.05314"
       id="path5879-7"
       sodipodi:nodetypes="cc" /><g
       aria-label="Fullscreen"
       id="text6383-6"
       style="font-weight:bold;font-size:3.14299px;-inkscape-font-specification:'sans-serif Bold';text-align:center;text-anchor:middle;fill:#ffffff;stroke-width:0.445463;stroke-linecap:round;stroke-linejoin:round;paint-order:stroke fill markers"><path
         d="M 1.1175871e-7,11.227449 H 1.5945151 v 0.446587 H 0.59084542 v 0.426637 H 1.5346633 V 12.54726 H 0.59084542 v 0.971442 H 1.1175871e-7 Z"
         id="path8356" /><path
         d="m 1.9474877,12.849588 v -1.049709 h 0.5524787 v 0.171882 q 0,0.139654 -0.00153,0.351438 -0.00153,0.210249 -0.00153,0.280843 0,0.20718 0.010743,0.29926 0.010743,0.09055 0.036832,0.131981 0.033763,0.05371 0.087476,0.08287 0.055248,0.02916 0.1258424,0.02916 0.1718823,0 0.2701007,-0.131981 0.098219,-0.131981 0.098219,-0.366784 v -0.848669 h 0.5494094 v 1.718823 H 3.126109 v -0.248616 q -0.1243077,0.150397 -0.2639621,0.222526 -0.1381197,0.0706 -0.305398,0.0706 -0.2977246,0 -0.4542602,-0.182625 -0.155001,-0.182625 -0.155001,-0.530994 z"
         id="path8358" /><path
         d="m 4.2034423,11.130766 h 0.5494094 v 2.387936 H 4.2034423 Z"
         id="path8360" /><path
         d="m 5.2807758,11.130766 h 0.5494094 v 2.387936 H 5.2807758 Z"
         id="path8362" /><path
         d="m 7.70094,11.853592 v 0.417428 q -0.1764863,-0.07366 -0.3406953,-0.110495 -0.1642089,-0.03683 -0.3100019,-0.03683 -0.1565357,0 -0.2332688,0.0399 -0.075198,0.03837 -0.075198,0.119704 0,0.06599 0.056782,0.101287 0.058317,0.0353 0.2071796,0.05218 l 0.096684,0.01381 q 0.4220324,0.05371 0.5678254,0.176486 0.145793,0.122773 0.145793,0.385201 0,0.274704 -0.2025755,0.412824 -0.2025756,0.13812 -0.6046573,0.13812 -0.1703476,0 -0.3529725,-0.02762 -0.1810903,-0.02609 -0.3729232,-0.0798 v -0.417428 q 0.164209,0.0798 0.3360912,0.119704 0.173417,0.0399 0.3514379,0.0399 0.1611396,0 0.2424768,-0.04451 0.081337,-0.04451 0.081337,-0.131981 0,-0.07366 -0.056782,-0.108961 -0.055248,-0.03683 -0.2225262,-0.05678 L 6.9182618,12.84345 Q 6.5514773,12.79741 6.4041496,12.673102 6.2568219,12.548794 6.2568219,12.295575 q 0,-0.27317 0.1872289,-0.405151 0.1872289,-0.131981 0.5739641,-0.131981 0.1519316,0 0.3192099,0.02302 0.1672783,0.02302 0.3637152,0.07213 z"
         id="path8364" /><path
         d="m 9.6177336,11.853592 v 0.448122 q -0.1120304,-0.07673 -0.2255955,-0.113565 -0.1120304,-0.03683 -0.2332688,-0.03683 -0.2301994,0 -0.3591111,0.13505 -0.1273771,0.133516 -0.1273771,0.374458 0,0.240942 0.1273771,0.375992 0.1289117,0.133516 0.3591111,0.133516 0.1289117,0 0.2440115,-0.03837 0.1166344,-0.03837 0.2148528,-0.113565 v 0.449657 q -0.1289117,0.04757 -0.2624274,0.07059 -0.131981,0.02455 -0.2654967,0.02455 -0.4650029,0 -0.7274303,-0.237873 -0.2624274,-0.239407 -0.2624274,-0.664509 0,-0.425102 0.2624274,-0.662975 0.2624274,-0.239407 0.7274303,-0.239407 0.1350503,0 0.2654967,0.02455 0.131981,0.02302 0.2624274,0.07059 z"
         id="path8366" /><path
         d="m 11.368785,12.267951 q -0.07213,-0.03376 -0.144258,-0.04911 -0.0706,-0.01688 -0.142724,-0.01688 -0.211783,0 -0.326883,0.136585 -0.113565,0.13505 -0.113565,0.388269 v 0.791887 h -0.54941 v -1.718823 h 0.54941 v 0.282378 q 0.105892,-0.168813 0.242477,-0.245546 0.138119,-0.07827 0.329952,-0.07827 0.02762,0 0.05985,0.0031 0.03223,0.0015 0.09361,0.0092 z"
         id="path8368" /><path
         d="m 13.357709,12.654686 v 0.156536 h -1.284514 q 0.01995,0.193367 0.139655,0.290051 0.119704,0.09668 0.334556,0.09668 0.173417,0 0.354508,-0.05064 0.182624,-0.05218 0.374457,-0.156536 v 0.423567 q -0.194902,0.07366 -0.389804,0.110496 -0.194902,0.03837 -0.389805,0.03837 -0.466537,0 -0.725895,-0.236338 -0.257824,-0.237873 -0.257824,-0.666044 0,-0.420498 0.25322,-0.66144 0.254754,-0.240942 0.699806,-0.240942 0.405151,0 0.647628,0.244011 0.244012,0.244012 0.244012,0.652232 z m -0.564757,-0.182625 q 0,-0.156535 -0.09208,-0.251684 -0.09054,-0.09668 -0.237873,-0.09668 -0.159605,0 -0.259358,0.09055 -0.09975,0.08901 -0.124308,0.257823 z"
         id="path8370" /><path
         d="m 15.489356,12.654686 v 0.156536 h -1.284513 q 0.01995,0.193367 0.139654,0.290051 0.119704,0.09668 0.334556,0.09668 0.173417,0 0.354508,-0.05064 0.182625,-0.05218 0.374457,-0.156536 v 0.423567 q -0.194902,0.07366 -0.389804,0.110496 -0.194902,0.03837 -0.389804,0.03837 -0.466538,0 -0.725896,-0.236338 -0.257823,-0.237873 -0.257823,-0.666044 0,-0.420498 0.253219,-0.66144 0.254754,-0.240942 0.699806,-0.240942 0.405151,0 0.647628,0.244011 0.244012,0.244012 0.244012,0.652232 z M 14.9246,12.472061 q 0,-0.156535 -0.09208,-0.251684 -0.09055,-0.09668 -0.237873,-0.09668 -0.159605,0 -0.259358,0.09055 -0.09975,0.08901 -0.124308,0.257823 z"
         id="path8372" /><path
         d="m 17.63328,12.472061 v 1.046641 h -0.552479 v -0.170348 -0.630747 q 0,-0.222526 -0.01074,-0.306932 -0.0092,-0.08441 -0.03376,-0.124308 -0.03223,-0.05371 -0.08748,-0.08287 -0.05525,-0.03069 -0.125842,-0.03069 -0.171882,0 -0.270101,0.133516 -0.09822,0.131981 -0.09822,0.366784 v 0.8456 h -0.54941 v -1.718823 h 0.54941 v 0.251685 q 0.124307,-0.150397 0.263962,-0.220992 0.139654,-0.07213 0.308467,-0.07213 0.297725,0 0.451191,0.182625 0.155001,0.182625 0.155001,0.530993 z"
         id="path8374" /></g><path
       style="fill:#000000;fill-opacity:1;stroke:#010000;stroke-width:0.500005;stroke-linecap:round;stroke-linejoin:round;stroke-dasharray:none;stroke-opacity:0.49301884;paint-order:stroke fill markers"
       d="M 64.448443,41.471116 88.611152,32.648088"
       id="path5879-7-3"
       sodipodi:nodetypes="cc" /><path
       style="fill:#000000;fill-opacity:1;stroke:#010000;stroke-width:0.529289;stroke-linecap:round;stroke-linejoin:round;stroke-dasharray:none;stroke-opacity:0.49301884;paint-order:stroke fill markers"
       d="m 54.622271,40.288594 0.376295,-7.875868"
       id="path5879-7-3-0"
       sodipodi:nodetypes="cc" /><path
       style="fill:#000000;fill-opacity:1;stroke:#010000;stroke-width:0.500005;stroke-linecap:round;stroke-linejoin:round;stroke-dasharray:none;stroke-opacity:0.49301884;paint-order:stroke fill markers"
       d="M 41.49425,15.946301 45.53196,3.3115729"
       id="path5879-7-3-0-4"
       sodipodi:nodetypes="cc" /><path
       style="fill:#000000;fill-opacity:1;stroke:#010000;stroke-width:0.500005;stroke-linecap:round;stroke-linejoin:round;stroke-dasharray:none;stroke-opacity:0.49301884;paint-order:stroke fill markers"
       d="M 45.018064,41.364918 37.596172,24.272245"
       id="path5879-7-3-0-9"
       sodipodi:nodetypes="cc" /><g
       aria-label="Movement"
       id="text6383-6-0"
       style="font-weight:bold;font-size:3.14299px;-inkscape-font-specification:'sans-serif Bold';text-align:center;text-anchor:middle;fill:#ffffff;stroke-width:0.445463;stroke-linecap:round;stroke-linejoin:round;paint-order:stroke fill markers"><path
         d="m 45.606613,40.553238 h 0.751985 l 0.521785,1.226196 0.524855,-1.226196 h 0.750451 v 2.291252 h -0.558618 v -1.675852 l -0.527924,1.235404 h -0.374458 l -0.527924,-1.235404 v 1.675852 h -0.560152 z"
         id="path8377" /><path
         d="m 49.527678,41.477105 q -0.182625,0 -0.279309,0.131981 -0.09515,0.130447 -0.09515,0.377527 0,0.247081 0.09515,0.379062 0.09668,0.130447 0.279309,0.130447 0.179555,0 0.274704,-0.130447 0.09515,-0.131981 0.09515,-0.379062 0,-0.24708 -0.09515,-0.377527 -0.09515,-0.131981 -0.274704,-0.131981 z m 0,-0.392874 q 0.443517,0 0.692133,0.239408 0.25015,0.239407 0.25015,0.662974 0,0.423567 -0.25015,0.662975 -0.248616,0.239407 -0.692133,0.239407 -0.445053,0 -0.696738,-0.239407 -0.25015,-0.239408 -0.25015,-0.662975 0,-0.423567 0.25015,-0.662974 0.251685,-0.239408 0.696738,-0.239408 z"
         id="path8379" /><path
         d="m 50.652586,41.125667 h 0.549409 l 0.428171,1.18783 0.426637,-1.18783 h 0.550944 L 51.93096,42.84449 h -0.603122 z"
         id="path8381" /><path
         d="m 54.633501,41.980475 v 0.156535 h -1.284513 q 0.01995,0.193368 0.139655,0.290052 0.119703,0.09668 0.334556,0.09668 0.173417,0 0.354507,-0.05064 0.182625,-0.05218 0.374458,-0.156536 v 0.423567 q -0.194902,0.07366 -0.389804,0.110496 -0.194902,0.03837 -0.389805,0.03837 -0.466537,0 -0.725895,-0.236338 -0.257824,-0.237873 -0.257824,-0.666044 0,-0.420497 0.25322,-0.661439 0.254754,-0.240943 0.699806,-0.240943 0.405151,0 0.647628,0.244012 0.244011,0.244011 0.244011,0.652232 z M 54.068745,41.79785 q 0,-0.156536 -0.09208,-0.251685 -0.09055,-0.09668 -0.237873,-0.09668 -0.159605,0 -0.259358,0.09054 -0.09975,0.08901 -0.124308,0.257824 z"
         id="path8383" /><path
         d="m 56.642375,41.411115 q 0.104358,-0.159605 0.247081,-0.242477 0.144259,-0.08441 0.316141,-0.08441 0.29619,0 0.451191,0.182625 0.155001,0.182625 0.155001,0.530994 v 1.04664 H 57.25931 v -0.896243 q 0.0015,-0.01995 0.0015,-0.04144 0.0015,-0.02148 0.0015,-0.06139 0,-0.182625 -0.05371,-0.263962 -0.05371,-0.08287 -0.173417,-0.08287 -0.156535,0 -0.242477,0.128912 -0.08441,0.128912 -0.08747,0.372923 v 0.844065 h -0.552479 v -0.896243 q 0,-0.285448 -0.04911,-0.366785 -0.04911,-0.08287 -0.174952,-0.08287 -0.15807,0 -0.244011,0.130447 -0.08594,0.128912 -0.08594,0.369854 v 0.845599 h -0.552479 v -1.718823 h 0.552479 v 0.251685 q 0.101287,-0.145793 0.231734,-0.219457 0.131981,-0.07366 0.290051,-0.07366 0.178021,0 0.314606,0.08594 0.136585,0.08594 0.207179,0.240942 z"
         id="path8385" /><path
         d="m 60.04012,41.980475 v 0.156535 h -1.284514 q 0.01995,0.193368 0.139655,0.290052 0.119704,0.09668 0.334556,0.09668 0.173417,0 0.354508,-0.05064 0.182624,-0.05218 0.374457,-0.156536 v 0.423567 q -0.194902,0.07366 -0.389804,0.110496 -0.194902,0.03837 -0.389804,0.03837 -0.466538,0 -0.725896,-0.236338 -0.257824,-0.237873 -0.257824,-0.666044 0,-0.420497 0.25322,-0.661439 0.254754,-0.240943 0.699806,-0.240943 0.405151,0 0.647628,0.244012 0.244012,0.244011 0.244012,0.652232 z M 59.475363,41.79785 q 0,-0.156536 -0.09208,-0.251685 -0.09055,-0.09668 -0.237873,-0.09668 -0.159605,0 -0.259358,0.09054 -0.09975,0.08901 -0.124308,0.257824 z"
         id="path8387" /><path
         d="m 62.184044,41.79785 v 1.04664 h -0.552479 v -0.170348 -0.630746 q 0,-0.222526 -0.01074,-0.306933 -0.0092,-0.08441 -0.03376,-0.124307 -0.03223,-0.05371 -0.08748,-0.08287 -0.05525,-0.03069 -0.125842,-0.03069 -0.171882,0 -0.270101,0.133516 -0.09822,0.131981 -0.09822,0.366785 v 0.845599 h -0.54941 v -1.718823 h 0.54941 v 0.251685 q 0.124307,-0.150397 0.263962,-0.220991 0.139654,-0.07213 0.308467,-0.07213 0.297725,0 0.451191,0.182625 0.155001,0.182625 0.155001,0.530994 z"
         id="path8389" /><path
         d="m 63.293606,40.637644 v 0.488023 h 0.566291 v 0.392874 h -0.566291 v 0.728965 q 0,0.119704 0.04757,0.162674 0.04758,0.04144 0.188764,0.04144 h 0.282378 V 42.84449 H 63.34118 q -0.325348,0 -0.461933,-0.13505 -0.135051,-0.136585 -0.135051,-0.461934 v -0.728965 h -0.27317 v -0.392874 h 0.27317 v -0.488023 z"
         id="path8391" /></g><g
       aria-label="Revive"
       id="text6383-6-0-2"
       style="font-weight:bold;font-size:3.14299px;-inkscape-font-specification:'sans-serif Bold';text-align:center;text-anchor:middle;fill:#ffffff;stroke-width:0.445463;stroke-linecap:round;stroke-linejoin:round;paint-order:stroke fill markers"><path
         d="m 40.709282,1.1126308 q 0.185694,0 0.265496,-0.06906 0.08134,-0.0690599 0.08134,-0.22713018 0,-0.15653564 -0.08134,-0.22406082 -0.0798,-0.0675252 -0.265496,-0.0675252 H 40.460666 V 1.1126308 Z M 40.460666,1.5208512 V 2.3879359 H 39.869821 V 0.09668381 h 0.902382 q 0.452725,0 0.662974,0.15193165 0.211784,0.15193165 0.211784,0.48034956 0,0.22713015 -0.110496,0.37292318 -0.108961,0.145793 -0.329953,0.2148528 0.121239,0.027624 0.216388,0.1258424 0.09668,0.096684 0.194902,0.2946553 l 0.320745,0.6506972 h -0.629212 l -0.279309,-0.56936 q -0.08441,-0.1718823 -0.171882,-0.2348035 -0.08594,-0.062921 -0.2302,-0.062921 z"
         id="path8394" /><path
         d="M 43.981183,1.5239205 V 1.6804562 H 42.69667 q 0.01995,0.1933675 0.139655,0.2900513 0.119703,0.096684 0.334556,0.096684 0.173417,0 0.354507,-0.050644 0.182625,-0.052179 0.374458,-0.1565356 v 0.423567 q -0.194902,0.073664 -0.389804,0.1104957 -0.194902,0.038367 -0.389805,0.038367 -0.466537,0 -0.725895,-0.2363381 -0.257824,-0.2378728 -0.257824,-0.6660438 0,-0.4204977 0.25322,-0.66143983 0.254754,-0.24094212 0.699806,-0.24094212 0.405151,0 0.647628,0.24401144 0.244011,0.24401141 0.244011,0.65223181 z M 43.416427,1.3412956 q 0,-0.1565356 -0.09208,-0.2516847 -0.09055,-0.0966838 -0.237873,-0.0966838 -0.159605,0 -0.259358,0.0905451 -0.09975,0.08901 -0.124308,0.2578234 z"
         id="path8396" /><path
         d="m 44.18069,0.66911316 h 0.549409 L 45.15827,1.8569424 45.584907,0.66911316 h 0.550944 L 45.459064,2.3879359 h -0.603122 z"
         id="path8398" /><path
         d="m 46.445852,0.66911316 h 0.54941 V 2.3879359 h -0.54941 z m 0,-0.669113130197678 h 0.54941 V 0.44812167 h -0.54941 z"
         id="path8400" /><path
         d="m 47.306799,0.66911316 h 0.549409 l 0.428171,1.18782924 0.426636,-1.18782924 h 0.550944 L 48.585173,2.3879359 H 47.98205 Z"
         id="path8402" /><path
         d="m 51.287715,1.5239205 v 0.1565357 h -1.284513 q 0.01995,0.1933675 0.139654,0.2900513 0.119704,0.096684 0.334556,0.096684 0.173417,0 0.354508,-0.050644 0.182625,-0.052179 0.374457,-0.1565356 v 0.423567 q -0.194902,0.073664 -0.389804,0.1104957 -0.194902,0.038367 -0.389804,0.038367 -0.466538,0 -0.725896,-0.2363381 -0.257823,-0.2378728 -0.257823,-0.6660438 0,-0.4204977 0.253219,-0.66143983 0.254754,-0.24094212 0.699806,-0.24094212 0.405151,0 0.647628,0.24401144 0.244012,0.24401141 0.244012,0.65223181 z M 50.722959,1.3412956 q 0,-0.1565356 -0.09208,-0.2516847 -0.09054,-0.0966838 -0.237873,-0.0966838 -0.159605,0 -0.259358,0.0905451 -0.09975,0.08901 -0.124308,0.2578234 z"
         id="path8404" /></g></g></svg>
