<?xml version="1.0" encoding="UTF-8" standalone="no"?>
<!-- Created with Inkscape (http://www.inkscape.org/) -->

<svg
   width="153.33099mm"
   height="64.174004mm"
   viewBox="0 0 153.33099 64.174004"
   version="1.1"
   id="svg5"
   inkscape:version="1.2.2 (b0a8486541, 2022-12-01)"
   sodipodi:docname="logo_title.svg"
   inkscape:export-filename="../../../../logo_title.png"
   inkscape:export-xdpi="124.24102"
   inkscape:export-ydpi="124.24102"
   xmlns:inkscape="http://www.inkscape.org/namespaces/inkscape"
   xmlns:sodipodi="http://sodipodi.sourceforge.net/DTD/sodipodi-0.dtd"
   xmlns:xlink="http://www.w3.org/1999/xlink"
   xmlns="http://www.w3.org/2000/svg"
   xmlns:svg="http://www.w3.org/2000/svg">
  <sodipodi:namedview
     id="namedview7"
     pagecolor="#505050"
     bordercolor="#eeeeee"
     borderopacity="1"
     inkscape:showpageshadow="0"
     inkscape:pageopacity="0"
     inkscape:pagecheckerboard="0"
     inkscape:deskcolor="#505050"
     inkscape:document-units="mm"
     showgrid="false"
     inkscape:zoom="1.393294"
     inkscape:cx="99.045858"
     inkscape:cy="78.590735"
     inkscape:window-width="1846"
     inkscape:window-height="1016"
     inkscape:window-x="0"
     inkscape:window-y="0"
     inkscape:window-maximized="1"
     inkscape:current-layer="layer1" />
  <defs
     id="defs2">
    <linearGradient
       inkscape:collect="always"
       id="linearGradient986">
      <stop
         style="stop-color:#ff1f1f;stop-opacity:1;"
         offset="0"
         id="stop982" />
      <stop
         style="stop-color:#d60000;stop-opacity:1;"
         offset="1"
         id="stop984" />
    </linearGradient>
    <linearGradient
       inkscape:collect="always"
       xlink:href="#linearGradient986"
       id="linearGradient960"
       x1="112.44653"
       y1="-0.080178171"
       x2="113.1305"
       y2="43.697578"
       gradientUnits="userSpaceOnUse"
       gradientTransform="translate(-2.4964766e-4,1.9999853)" />
    <linearGradient
       inkscape:collect="always"
       xlink:href="#linearGradient986"
       id="linearGradient962"
       x1="140.36191"
       y1="-0.79052478"
       x2="140.91621"
       y2="44.914333"
       gradientUnits="userSpaceOnUse"
       gradientTransform="translate(-2.4964766e-4,1.9999853)" />
  </defs>
  <g
     inkscape:label="Layer 1"
     inkscape:groupmode="layer"
     id="layer1">
    <path
       d="m 31.359032,27.803505 q 0.468229,6.10884 -1.566645,10.394464 -2.012038,4.258995 -6.279856,6.675819 -4.269714,2.392092 -10.502214,2.869798 L 2.7712077,48.52839 -2.4954766e-4,12.369994 11.351806,11.499886 q 5.688393,-0.436002 10.02357,1.271667 4.333281,1.682937 6.936676,5.463783 2.6015,3.756115 3.04698,9.568169 z m -7.948585,0.808261 Q 23.10335,24.605157 21.719058,22.124007 20.357602,19.616228 17.96273,18.555916 15.59259,17.49371 12.229018,17.75152 l -4.0808046,0.312785 1.8046693,23.545001 3.2893763,-0.252123 q 5.614197,-0.430315 8.105358,-3.631427 2.515893,-3.203008 2.06283,-9.11399 z"
       id="path241"
       style="font-weight:bold;font-size:50.8px;font-family:'Open Sans';-inkscape-font-specification:'Open Sans Bold';white-space:pre;fill:#ffffff;stroke-width:2;stroke-linecap:round;stroke-linejoin:round;paint-order:stroke markers fill" />
    <path
       d="m 48.913927,16.65625 q 3.833483,-0.293827 6.717223,0.977788 2.881844,1.246882 4.604715,3.925979 1.72287,2.679097 2.031863,6.710436 l 0.280558,3.660358 -17.831877,1.366772 q 0.368202,3.180969 2.289195,4.87466 1.943829,1.667063 5.134276,1.422523 2.646339,-0.202836 4.805797,-0.915657 2.159456,-0.712821 4.400868,-1.979228 l 0.447376,5.836786 q -1.975046,1.171358 -4.189653,1.813774 -2.189876,0.64052 -5.380323,0.885061 -4.155,0.318471 -7.487709,-0.968487 -3.307978,-1.288852 -5.378906,-4.289556 -2.046195,-3.002599 -2.412058,-7.775903 -0.37155,-4.847499 1.014336,-8.187793 1.408722,-3.36692 4.228629,-5.200092 2.818012,-1.857906 6.72569,-2.157421 z m 0.460823,5.363084 q -2.20116,0.168714 -3.552305,1.690291 -1.326411,1.519681 -1.31773,4.554063 l 10.585358,-0.811343 q -0.153642,-1.67989 -0.847678,-2.945197 -0.66931,-1.267205 -1.890486,-1.944805 -1.196445,-0.679496 -2.977159,-0.543009 z"
       id="path243"
       style="font-weight:bold;font-size:50.8px;font-family:'Open Sans';-inkscape-font-specification:'Open Sans Bold';white-space:pre;fill:#ffffff;stroke-width:2;stroke-linecap:round;stroke-linejoin:round;paint-order:stroke markers fill" />
    <path
       d="m 78.761838,14.318723 q 5.564728,-0.426524 8.718357,1.769747 3.15364,2.196271 3.532772,7.142699 l 1.412268,18.425448 -5.267948,0.403776 -1.747341,-3.647441 -0.197859,0.01517 q -1.073399,1.57492 -2.237976,2.609525 -1.164568,1.034604 -2.738031,1.603 -1.573473,0.568398 -3.873556,0.744694 -2.448488,0.187671 -4.474362,-0.602394 -2.001142,-0.791959 -3.26195,-2.635762 -1.262704,-1.868535 -1.492079,-4.861124 -0.337428,-4.402322 2.594855,-6.716781 2.930386,-2.339189 9.096364,-3.035694 l 4.786663,-0.516151 -0.09289,-1.211875 q -0.166818,-2.176429 -1.382224,-3.103247 -1.215395,-0.926817 -3.243436,-0.771373 -2.003304,0.153549 -3.888806,0.87025 -1.885511,0.716701 -3.74827,1.730188 L 68.367936,17.628017 Q 70.48,16.296893 73.14935,15.420603 q 2.694085,-0.878187 5.612485,-1.101875 z m 5.187605,15.101029 -2.910817,0.322618 q -3.652771,0.379487 -4.994347,1.701309 -1.316847,1.319928 -1.165194,3.2985 0.132696,1.73125 1.203582,2.395493 1.069,0.639509 2.701312,0.514396 2.423751,-0.185775 3.970862,-1.747249 1.571839,-1.563369 1.369003,-4.209709 z"
       id="path245"
       style="font-weight:bold;font-size:50.8px;font-family:'Open Sans';-inkscape-font-specification:'Open Sans Bold';white-space:pre;fill:#ffffff;stroke-width:2;stroke-linecap:round;stroke-linejoin:round;paint-order:stroke markers fill" />
    <path
       d="m 104.78478,1.9999853 0.60093,7.8400902 q 0.15734,2.0527685 0.15112,3.9190525 0.0185,1.86439 0.003,2.636773 l 0.39571,-0.03033 q 0.78041,-1.502708 1.92404,-2.485953 1.16837,-0.98514 2.62007,-1.519327 1.4517,-0.534186 3.15821,-0.664986 2.9926,-0.229375 5.3,0.663498 2.30551,0.868141 3.71463,3.023982 1.40721,2.13111 1.68018,5.692539 l 1.38194,18.029733 -7.5433,0.578177 -1.23787,-16.150091 q -0.22748,-2.967856 -1.43132,-4.393109 -1.20386,-1.425251 -3.47921,-1.25085 -2.27536,0.1744 -3.50465,1.338353 -1.23119,1.13922 -1.61795,3.233692 -0.38866,2.069741 -0.16308,5.012866 l 0.99712,13.009108 -7.5433,0.578176 -2.949653,-38.4832169 z"
       id="path247"
       style="font-weight:bold;font-size:50.8px;font-family:'Open Sans';-inkscape-font-specification:'Open Sans Bold';white-space:pre;fill:none;fill-opacity:1;stroke:#ffffff;stroke-width:4;stroke-linecap:round;stroke-linejoin:round;stroke-dasharray:none;stroke-opacity:1;paint-order:stroke markers fill" />
    <path
       d="m 144.70669,32.101695 q 1.23662,-0.09478 2.38007,-0.431201 1.16818,-0.338313 2.30216,-0.798391 l 0.43031,5.614197 q -1.17017,0.636994 -2.94907,1.121627 -1.75229,0.507471 -3.87925,0.670497 -2.47321,0.189566 -4.51244,-0.45021 -2.01641,-0.666403 -3.30573,-2.557774 -1.2665,-1.918 -1.53947,-5.479428 l -1.02176,-13.330626 -3.6109,0.276767 -0.24454,-3.190446 3.96164,-2.841151 1.72905,-6.0036047 4.82278,-0.3696544 0.45116,5.8862521 7.74117,-0.5933425 0.43411,5.6636605 -7.74117,0.593342 1.02176,13.330627 q 0.12132,1.582857 1.07234,2.306041 0.97386,0.696558 2.45778,0.582818 z"
       id="path249"
       style="font-weight:bold;font-size:50.8px;font-family:'Open Sans';-inkscape-font-specification:'Open Sans Bold';white-space:pre;fill:none;fill-opacity:1;stroke:#ffffff;stroke-width:4;stroke-linecap:round;stroke-linejoin:round;stroke-dasharray:none;stroke-opacity:1;paint-order:stroke markers fill" />
    <path
       id="rect448"
       style="fill:#ffffff;stroke-width:2;stroke-linecap:round;stroke-linejoin:round;paint-order:stroke markers fill"
       d="M 94.981601,45.913817 H 153.33099 V 64.173668 H 94.981601 Z" />
    <g
       aria-label="Scrolls"
       id="text452"
       style="font-weight:600;font-size:16.9333px;font-family:'Open Sans';-inkscape-font-specification:'Open Sans Semi-Bold';fill:#ffffff;stroke-width:2;stroke-linecap:round;stroke-linejoin:round;paint-order:stroke markers fill"
       transform="translate(-2.4914766e-4,0.62183921)">
      <path
         d="m 106.13598,57.48114 q 0,1.074868 -0.52917,1.85208 -0.5209,0.777212 -1.50482,1.190622 -0.97564,0.413411 -2.33163,0.413411 -0.66146,0 -1.26504,-0.07441 -0.603577,-0.07441 -1.141011,-0.214973 -0.529166,-0.148828 -0.967381,-0.355534 V 58.42372 q 0.735871,0.322461 1.645372,0.587043 0.90951,0.256315 1.85208,0.256315 0.76895,0 1.27331,-0.198437 0.51263,-0.206705 0.76067,-0.578775 0.24805,-0.380338 0.24805,-0.884699 0,-0.537434 -0.28939,-0.909503 -0.28939,-0.37207 -0.87643,-0.677994 -0.57877,-0.314192 -1.4552,-0.669725 -0.59532,-0.239778 -1.14102,-0.545702 -0.537432,-0.305924 -0.959111,-0.719335 -0.421679,-0.41341 -0.669725,-0.975649 -0.239778,-0.570506 -0.239778,-1.33945 0,-1.025259 0.487824,-1.752861 0.496093,-0.727603 1.38906,-1.116209 0.90124,-0.388606 2.10013,-0.388606 0.95084,0 1.78593,0.198437 0.84336,0.198437 1.65364,0.562239 l -0.62838,1.595765 q -0.74414,-0.305924 -1.44694,-0.487825 -0.69453,-0.181901 -1.42213,-0.181901 -0.62839,0 -1.0666,0.190169 -0.43822,0.190169 -0.66973,0.537434 -0.22324,0.338997 -0.22324,0.810285 0,0.529166 0.25632,0.892967 0.26458,0.355533 0.81028,0.653189 0.55397,0.297656 1.42213,0.661457 1.00046,0.413411 1.69499,0.868162 0.7028,0.454752 1.07487,1.091404 0.37207,0.628385 0.37207,1.579229 z"
         style="fill:#000000"
         id="path253" />
      <path
         d="m 111.9568,60.937253 q -1.29811,0 -2.24896,-0.504361 -0.95084,-0.504361 -1.46347,-1.546156 -0.51263,-1.041795 -0.51263,-2.645828 0,-1.670179 0.56224,-2.72851 0.56224,-1.058331 1.55442,-1.562692 1.00046,-0.504361 2.2903,-0.504361 0.81855,0 1.48001,0.165364 0.66972,0.157096 1.13274,0.388606 l -0.57877,1.554424 q -0.50436,-0.206705 -1.03353,-0.347265 -0.52916,-0.14056 -1.01699,-0.14056 -0.80202,0 -1.33945,0.355533 -0.52916,0.355534 -0.79375,1.058332 -0.25631,0.702798 -0.25631,1.744593 0,1.008722 0.26458,1.703251 0.26458,0.686262 0.78548,1.041795 0.5209,0.347265 1.28157,0.347265 0.75241,0 1.34772,-0.1819 0.59531,-0.181901 1.12448,-0.471289 v 1.686716 q -0.5209,0.297656 -1.11621,0.438215 -0.59531,0.148828 -1.46347,0.148828 z"
         style="fill:#000000"
         id="path255" />
      <path
         d="m 121.31641,51.445345 q 0.23151,0 0.50437,0.0248 0.27285,0.02481 0.47128,0.06615 l -0.1819,1.819007 q -0.17363,-0.04961 -0.42994,-0.07441 -0.24805,-0.02481 -0.44649,-0.02481 -0.5209,0 -0.99218,0.173633 -0.47129,0.165364 -0.83509,0.512629 -0.3638,0.338997 -0.57051,0.851626 -0.2067,0.512629 -0.2067,1.190622 v 4.787296 h -1.9513 v -9.152912 h 1.52135 l 0.26458,1.612302 h 0.0909 q 0.27285,-0.487825 0.67799,-0.892967 0.40515,-0.405143 0.92604,-0.644921 0.52917,-0.248046 1.15755,-0.248046 z"
         style="fill:#000000"
         id="path257" />
      <path
         d="m 132.0899,56.174762 q 0,1.141014 -0.29766,2.025713 -0.29765,0.884698 -0.86816,1.496546 -0.57051,0.60358 -1.37252,0.92604 -0.80202,0.314192 -1.81074,0.314192 -0.94258,0 -1.72806,-0.314192 -0.78548,-0.32246 -1.36426,-0.92604 -0.5705,-0.611848 -0.88469,-1.496546 -0.3142,-0.884699 -0.3142,-2.025713 0,-1.513083 0.5209,-2.563146 0.52917,-1.058331 1.50482,-1.612301 0.97565,-0.55397 2.32336,-0.55397 1.26504,0 2.23242,0.55397 0.96738,0.55397 1.51308,1.612301 0.54571,1.058332 0.54571,2.563146 z m -6.63938,0 q 0,1.000454 0.23978,1.71152 0.24805,0.711067 0.76068,1.091405 0.51262,0.372069 1.32291,0.372069 0.81028,0 1.32291,-0.372069 0.51263,-0.380338 0.75241,-1.091405 0.23978,-0.711066 0.23978,-1.71152 0,-1.000453 -0.23978,-1.694983 -0.23978,-0.702798 -0.75241,-1.0666 -0.51263,-0.372069 -1.33118,-0.372069 -1.20716,0 -1.76113,0.810285 -0.55397,0.810284 -0.55397,2.323367 z"
         style="fill:#000000"
         id="path259" />
      <path
         d="m 136.27361,60.771889 h -1.9513 v -12.86534 h 1.9513 z"
         style="fill:#000000"
         id="path261" />
      <path
         d="m 140.99476,60.771889 h -1.9513 v -12.86534 h 1.9513 z"
         style="fill:#000000"
         id="path263" />
      <path
         d="m 149.91616,58.159133 q 0,0.901236 -0.43821,1.521352 -0.43822,0.620116 -1.28157,0.942576 -0.83509,0.314192 -2.05052,0.314192 -0.95911,0 -1.65364,-0.14056 -0.68627,-0.132291 -1.29811,-0.41341 v -1.678447 q 0.65319,0.305923 1.46347,0.529165 0.81855,0.223242 1.54616,0.223242 0.95911,0 1.38079,-0.297656 0.42168,-0.305924 0.42168,-0.810285 0,-0.297655 -0.17364,-0.529165 -0.16536,-0.239778 -0.62838,-0.487825 -0.45475,-0.256314 -1.33945,-0.611848 -0.86816,-0.347265 -1.46347,-0.694529 -0.59532,-0.347265 -0.90124,-0.83509 -0.30592,-0.496093 -0.30592,-1.265037 0,-1.215427 0.95911,-1.843811 0.96738,-0.636652 2.55488,-0.636652 0.84335,0 1.58749,0.173632 0.75241,0.165364 1.47175,0.487825 l -0.61185,1.463473 q -0.62012,-0.272851 -1.2485,-0.446483 -0.62012,-0.181901 -1.26504,-0.181901 -0.75241,0 -1.14928,0.23151 -0.38861,0.23151 -0.38861,0.661457 0,0.32246 0.19017,0.545702 0.19017,0.223242 0.65319,0.446484 0.47129,0.223241 1.30638,0.55397 0.81855,0.314192 1.41386,0.661457 0.60358,0.338997 0.92604,0.835089 0.32246,0.496093 0.32246,1.281573 z"
         style="fill:#000000"
         id="path265" />
    </g>
    <path
       id="rect410"
       style="opacity:0.903091;fill:#ffffff;stroke-width:2;stroke-linecap:round;stroke-linejoin:round;paint-order:stroke markers fill"
       d="m 86.960071,45.913817 h 5.518357 v 18.259851 h -5.518357 z" />
    <path
       id="rect410-0"
       style="opacity:0.54657;fill:#ffffff;stroke-width:2;stroke-linecap:round;stroke-linejoin:round;paint-order:stroke markers fill"
       d="m 78.93854,45.913817 h 5.518358 V 64.173668 H 78.93854 Z" />
    <path
       id="rect439"
       style="opacity:0.248105;fill:#ffffff;stroke-width:2;stroke-linecap:round;stroke-linejoin:round;paint-order:stroke markers fill"
       d="m 70.91701,45.913817 h 5.518358 V 64.173668 H 70.91701 Z" />
    <path
       d="m 104.78478,1.9999853 0.60093,7.8400902 q 0.15734,2.0527685 0.15112,3.9190525 0.0185,1.86439 0.003,2.636773 l 0.39571,-0.03033 q 0.78041,-1.502708 1.92404,-2.485953 1.16837,-0.98514 2.62007,-1.519327 1.4517,-0.534186 3.15821,-0.664986 2.9926,-0.229375 5.3,0.663498 2.30551,0.868141 3.71463,3.023982 1.40721,2.13111 1.68018,5.692539 l 1.38194,18.029733 -7.5433,0.578177 -1.23787,-16.150091 q -0.22748,-2.967856 -1.43132,-4.393109 -1.20386,-1.425251 -3.47921,-1.25085 -2.27536,0.1744 -3.50465,1.338353 -1.23119,1.13922 -1.61795,3.233692 -0.38866,2.069741 -0.16308,5.012866 l 0.99712,13.009108 -7.5433,0.578176 -2.949653,-38.4832169 z"
       id="path1564"
       style="font-weight:bold;font-size:50.8px;font-family:'Open Sans';-inkscape-font-specification:'Open Sans Bold';white-space:pre;fill:url(#linearGradient960);fill-opacity:1;stroke-width:2;stroke-linecap:round;stroke-linejoin:round;paint-order:stroke markers fill" />
    <path
       d="m 144.70669,32.101695 q 1.23662,-0.09478 2.38007,-0.431201 1.16818,-0.338313 2.30216,-0.798391 l 0.43031,5.614197 q -1.17017,0.636994 -2.94907,1.121627 -1.75229,0.507471 -3.87925,0.670497 -2.47321,0.189566 -4.51244,-0.45021 -2.01641,-0.666403 -3.30573,-2.557774 -1.2665,-1.918 -1.53947,-5.479428 l -1.02176,-13.330626 -3.6109,0.276767 -0.24454,-3.190446 3.96164,-2.841151 1.72905,-6.0036047 4.82278,-0.3696544 0.45116,5.8862521 7.74117,-0.5933425 0.43411,5.6636605 -7.74117,0.593342 1.02176,13.330627 q 0.12132,1.582857 1.07234,2.306041 0.97386,0.696558 2.45778,0.582818 z"
       id="path1566"
       style="font-weight:bold;font-size:50.8px;font-family:'Open Sans';-inkscape-font-specification:'Open Sans Bold';white-space:pre;fill:url(#linearGradient962);fill-opacity:1;stroke-width:2;stroke-linecap:round;stroke-linejoin:round;paint-order:stroke markers fill" />
  </g>
</svg>
