<?xml version="1.0" encoding="UTF-8" standalone="no"?>
<!-- Created with Inkscape (http://www.inkscape.org/) -->

<svg
   width="50"
   height="50"
   viewBox="0 0 13.229166 13.229166"
   version="1.1"
   id="svg5"
   xml:space="preserve"
   inkscape:version="1.2.2 (b0a8486541, 2022-12-01)"
   sodipodi:docname="timesrespawn.svg"
   xmlns:inkscape="http://www.inkscape.org/namespaces/inkscape"
   xmlns:sodipodi="http://sodipodi.sourceforge.net/DTD/sodipodi-0.dtd"
   xmlns="http://www.w3.org/2000/svg"
   xmlns:svg="http://www.w3.org/2000/svg"><sodipodi:namedview
     id="namedview7"
     pagecolor="#505050"
     bordercolor="#eeeeee"
     borderopacity="1"
     inkscape:showpageshadow="0"
     inkscape:pageopacity="0"
     inkscape:pagecheckerboard="0"
     inkscape:deskcolor="#505050"
     inkscape:document-units="mm"
     showgrid="false"
     inkscape:zoom="5.6568543"
     inkscape:cx="46.138717"
     inkscape:cy="6.9826794"
     inkscape:window-width="1846"
     inkscape:window-height="1016"
     inkscape:window-x="0"
     inkscape:window-y="0"
     inkscape:window-maximized="1"
     inkscape:current-layer="layer1" /><defs
     id="defs2" /><g
     inkscape:label="Layer 1"
     inkscape:groupmode="layer"
     id="layer1"><path
       id="path1409-6-2"
       style="fill:#ffffff;fill-opacity:1;stroke:#ffffff;stroke-width:1.385;stroke-linecap:butt;stroke-linejoin:round;stroke-dasharray:none;stroke-opacity:1"
       d="M 6.6145833,0.77359619 0.77359619,6.6145833 6.7308553,12.45557 12.45557,6.6145833 Z m 0,1.61333821 C 8.6570908,2.3869048 10.842092,4.5719059 10.842233,6.6145833 10.842092,8.6572609 8.657091,10.842262 6.6145833,10.842233 4.5720758,10.842262 2.3870748,8.6572607 2.3869344,6.6145833 2.3870751,4.571906 4.572076,2.3869051 6.6145833,2.3869344 Z"
       sodipodi:nodetypes="cccccccccc" /><path
       d="m 4.3942037,5.4407168 c 0.035714,-0.042919 0.082983,-0.063456 0.1463919,-0.063148 0.053761,-7.179e-4 0.067442,0.00491 0.2920292,0.1186658 l 0.2357087,0.1193917 0.015338,-0.02018 c 0.00969,-0.011622 0.036292,-0.054045 0.061337,-0.093506 C 5.2452652,5.336634 5.418658,5.1498648 5.5999531,5.0078258 6.1793391,4.5589628 6.9578434,4.4574965 7.6344132,4.7429909 8.5938552,5.1476236 9.0934102,6.2116698 8.7925543,7.2097026 8.7471643,7.3570696 8.631261,7.6059648 8.5474356,7.7313078 8.3603599,8.0128285 8.0984484,8.2513319 7.7994219,8.4100268 7.624975,8.5034428 7.2937565,8.607714 7.1004779,8.6305275 6.8097122,8.6650265 6.4786628,8.6410025 6.3208013,8.5737115 6.1482638,8.5002917 6.041127,8.3278126 6.0502002,8.1392121 6.0541823,8.0535212 6.1162696,7.9159165 6.1799996,7.8503212 6.2870362,7.7418462 6.4297976,7.7010024 6.6020555,7.7323564 7.0175195,7.8055003 7.4030603,7.6842649 7.6860794,7.3916376 7.7538736,7.3204879 7.7646305,7.304296 7.8537746,7.1283035 7.9424142,6.953307 7.9496114,6.9340605 7.9673852,6.83627 8.0452426,6.3862722 7.8740528,5.9537869 7.5148469,5.6917462 7.3198445,5.5497447 7.1001085,5.4791165 6.8480598,5.4773276 6.7111335,5.4765933 6.6461942,5.4869276 6.506462,5.5293066 6.369837,5.5707036 6.2717048,5.6188726 6.1637746,5.6989463 6.0741596,5.7654053 5.9537962,5.9001898 5.9153506,5.9760909 l -0.027639,0.054567 0.244796,0.1239946 C 6.2680825,6.2233245 6.3919608,6.2924368 6.410647,6.3082545 6.450503,6.3449725 6.477428,6.439957 6.462427,6.4921171 6.441261,6.5614921 6.405627,6.594282 6.2983325,6.6429229 6.0060485,6.7732775 5.0006646,7.2097275 4.9468115,7.228234 4.9051725,7.242703 4.8691435,7.246096 4.8351694,7.237804 4.7845034,7.227364 4.7683344,7.216669 4.723446,7.167239 4.7083295,7.1494185 4.64375,6.8904518 4.5252749,6.3664553 4.4280897,5.94095 4.3493133,5.5794715 4.3494142,5.5642431 c -7.62e-4,-0.041113 0.017234,-0.089201 0.044789,-0.1235286 z"
       id="path6898"
       style="fill:#ffffff;fill-opacity:1;stroke-width:0.0264583" /></g></svg>
